<svg xmlns="http://www.w3.org/2000/svg" viewBox="0 0 60.24 61.22"><defs><style>.cls-1,.cls-2{fill:none;stroke:#888}.cls-1{stroke-width:3px}.cls-2{stroke-width:2px}</style></defs><path d="M1.57 1.85l28.3 4.75a.07.07 0 01.07.07v52.7a.07.07 0 01-.07.07l-28.3-4.67c-.07-.07-.07-.07-.07-.14V1.92a.07.07 0 01.07-.07zM58.74 1.78l-28.8 4.9v52.77l28.8-4.82z" class="cls-1"/><path d="M6.54 17.18l18.79 3M53.84 17.26l-19 3M53.84 28.13l-19 3M53.84 38.93L34.76 42M5.75 28.13l18.79 3M5 39l18.79 3" class="cls-2"/></svg>
