<svg xmlns="http://www.w3.org/2000/svg" viewBox="0 0 60 60"><circle cx="30" cy="30" r="28" fill="#f3f3f3"/><path fill="#8bdb7d" d="M30 1C14.1 1 1 14.1 1 30s13.1 29 29 29 29-13.1 29-29S46 1 30 1zm0 57C14.6 58 2 45.4 2 30S14.6 2 30 2s28 12.6 28 28-12.6 28-28 28z"/><path fill="#a1a1a1" stroke="#a1a1a1" stroke-miterlimit="10" d="M16.7 40.4c0-1.3.4-2.8.9-4.3 1.3-3.7 4-7.6 7.6-11.1s7.4-6.2 11-7.5c3.3-1.3 5.9-1.3 7.2 0l.6.6c1.1 1.1 2.5 2.4 2.5 4-.1 1.2-.8 2.3-2.2 3.5-4.2 3.4-5.7 1.9-7.5.1l-.3-.3c-.3-.3-1.6-.8-6.7 4.3-1.7 1.7-2.9 3-3.6 4.2-.4.7-1.1 2-.6 2.5l.3.3c1.8 1.8 3.3 3.3-.1 7.5-1.1 1.4-2.3 2.1-3.5 2.2-1.6.1-3-1.3-4-2.5l-.6-.6c-.8-.8-1.1-1.7-1-2.9zm28.7-18.5c0-1.1-1.1-2.3-2.1-3.3l-.6-.6c-.9-.9-3.3-.8-6.2.2-3.5 1.3-7.3 3.9-10.7 7.3s-6.1 7.2-7.3 10.7c-1.1 2.8-1.1 5.2-.2 6.2l.6.6c1 1 2.1 2.2 3.3 2.2.8 0 1.8-.6 2.7-1.8 2.8-3.5 1.8-4.5.2-6.2l-.4-.4c-.8-.8-.6-2.1.5-3.7.8-1.2 2.1-2.6 3.7-4.3h0c4.2-4.2 6.9-5.6 8.1-4.3l.3.3c1.6 1.6 2.6 2.6 6.2-.2 1.2-.9 1.8-1.8 1.9-2.7-.1.1 0 0 0 0z"/></svg>
