<svg xmlns="http://www.w3.org/2000/svg" viewBox="-19.2 22.5 49.3 56"><path fill="#a1a1a1" stroke="#a1a1a1" stroke-miterlimit="10" d="M29.4 68.3c-4.7-4.6-7-10.1-7-16.3v-9c0-6.9-4.6-11.4-8.5-13.2-1.1-.5-2.3-.9-3.5-1.2V28c0-2.8-2.2-5-5-5s-5 2.2-5 5v.7c-1.1.3-2.1.7-3.1 1.1-4.4 2-8.8 6.9-8.9 13.2v9c0 6.4-2.3 11.9-6.7 16.3-.3.3-.4.7-.2 1 .1.4.4.6.8.7l9.5 1.6c1.8.3 3.4.6 4.9.8 1.7 3.4 5.2 5.6 8.9 5.6s7.2-2.2 8.9-5.6c1.5-.2 3.2-.5 4.9-.8l9.5-1.6c.4-.1.7-.3.8-.7 0-.4-.1-.7-.3-1zM2.3 28c0-1.7 1.3-3 3-3s3 1.3 3 3v.2c-2-.3-4-.3-6 0V28zm3.2 48C3 76 .6 74.7-.9 72.7a70.16 70.16 0 0012.8 0C10.4 74.7 8 76 5.5 76zM19 69.7c-1.9.3-3.7.6-5.3.8 0 0 0 0 0 0-.7.1-1.4.2-2.1.2 0 0 0 0 0 0-.6.1-1.3.1-1.9.2h-.4c-.5 0-1.1.1-1.6.1H3.4c-.5 0-1 0-1.6-.1h-.4c-.6 0-1.2-.1-1.8-.2h-.1c-.7-.1-1.4-.1-2.1-.2 0 0 0 0 0 0-1.7-.2-3.5-.5-5.4-.8l-7.7-1.3c4-4.6 6-10 6-16.3v-9c0-5.4 3.9-9.6 7.7-11.4 1.1-.5 2.3-.9 3.5-1.2 0 0 0 0 0 0 2.5-.6 5.1-.6 7.6-.1 0 0 0 0 0 0 1.3.3 2.6.7 3.8 1.2 3.7 1.7 7.4 5.9 7.4 11.4v9c0 6 2.2 11.6 6.3 16.3L19 69.7z"/></svg>
