<svg xmlns="http://www.w3.org/2000/svg" viewBox="-37.5 46 49.3 56"><path fill="#424242" stroke="#424242" stroke-miterlimit="10" d="M4 75.5v-9c0-6.9-4.6-11.4-8.5-13.2-1.1-.5-2.3-.9-3.5-1.2v-.6c0-2.8-2.2-5-5-5s-5 2.2-5 5v.7c-1.1.3-2.1.7-3.1 1.1-4.4 2-8.8 6.9-8.9 13.2v9c0 6.4-2.3 11.9-6.7 16.3-.3.3-.4.7-.2 1 .1.4.4.6.8.7l9.5 1.6c1.8.3 3.4.6 4.9.8 1.7 3.4 5.2 5.6 8.9 5.6s7.2-2.2 8.9-5.6c1.5-.2 3.2-.5 4.9-.8l9.5-1.6c.4-.1.7-.3.8-.7.1-.4 0-.7-.2-1C6.4 87.2 4 81.7 4 75.5zm-20-24c0-1.7 1.3-3 3-3s3 1.3 3 3v.2c-2-.3-4-.3-6 0v-.2zm3.2 48c-2.5 0-4.9-1.3-6.4-3.3a70.16 70.16 0 0012.8 0c-1.5 2-3.9 3.3-6.4 3.3zM.7 93.2c-1.9.3-3.7.6-5.3.8h0c-.7.1-1.4.2-2.1.2h0c-.6.1-1.3.1-1.9.2h-.3c-.5 0-1.1.1-1.6.1h-4.3c-.5 0-1 0-1.6-.1h-.4c-.6 0-1.2-.1-1.8-.2h-.1c-.8-.1-1.5-.1-2.3-.2h0c-1.7-.2-3.4-.5-5.4-.8l-7.7-1.3c4-4.6 6-10 6-16.3v-9c0-5.4 3.9-9.6 7.7-11.4 1.1-.5 2.3-.9 3.5-1.2h0c2.5-.6 5.1-.6 7.6-.1h0c1.3.3 2.6.7 3.8 1.2 3.7 1.7 7.4 5.9 7.4 11.4v9c0 6 2.2 11.6 6.3 16.3L.7 93.2z"/></svg>
