<svg xmlns="http://www.w3.org/2000/svg" viewBox="-23 25.4 51.6 51.6"><path fill="#a1a1a1" d="M27.1 44.6c-.4-.4-1-.4-1.4 0L-1.6 71.9c-2 2-4.7 3.1-7.6 3.1-2.9 0-5.6-1.1-7.6-3.1s-3.1-4.7-3.1-7.6c0-2.9 1.1-5.6 3.1-7.6l27.3-27.3c2.9-2.9 7.4-2.7 10.6.4 3.1 3.1 3.3 7.7.4 10.6L-4 66.1a3.74 3.74 0 01-5.2 0 3.74 3.74 0 010-5.2L8.1 43.5c.4-.4.4-1 0-1.4s-1-.4-1.4 0l-17.4 17.4a5.67 5.67 0 000 8c2.2 2.2 5.8 2.2 8 0L23 41.9c3.7-3.7 3.5-9.5-.4-13.4-3.9-3.9-9.7-4.1-13.4-.4l-27.3 27.3c-2.4 2.4-3.7 5.6-3.7 9A12.63 12.63 0 00-9.1 77.1c3.4 0 6.6-1.3 9-3.7L27.1 46c.4-.4.4-1 0-1.4z"/></svg>
