<svg xmlns="http://www.w3.org/2000/svg" viewBox="0 0 79.81 58.59"><defs><style>.cls-1{fill:none;stroke:#888;stroke-width:3px}</style></defs><path d="M2.91 44.65a31.16 31.16 0 01-.22-17.78C7.87 8.65 28.83-2.22 49.35 2.67s33 23.83 27.79 42.12" class="cls-1"/><path d="M3.12 38.88V49.7a1 1 0 00.39.79l8.37 6.39a1 1 0 001.61-.79v-23.6a1 1 0 00-1.61-.79l-8.36 6.39a1 1 0 00-.4.79zM76.85 49.62V38.74a1 1 0 00-.4-.8L68 31.54a1 1 0 00-1.6.8V56a1 1 0 001.6.8l8.44-6.34a1 1 0 00.41-.84z" class="cls-1"/></svg>
