<svg xmlns="http://www.w3.org/2000/svg" viewBox="-38 55.2 60 47.4"><style>.st0{fill:#888}</style><path d="M-9.6 56.7c-1-.6-2.1-.5-3.1 0l-.1.1-13.6 11.5H-37c-.6 0-1 .4-1 1v19c0 .3.1.5.3.7.2.2.4.3.7.3h10.6l13.6 12.4s.1.1.2.1c.5.3 1 .4 1.6.4.5 0 1-.1 1.5-.4 1-.6 1.6-1.6 1.6-2.8V59.4c-.1-1.1-.7-2.2-1.7-2.7zm-.4 42.4c0 .4-.2.8-.6 1-.2.1-.5.3-1 0L-25 87.8v-4.6c0-.6-.4-1-1-1s-1 .4-1 1v4h-9v-17h9v4c0 .6.4 1 1 1s1-.4 1-1v-4.5l13.4-11.3c.5-.2.9-.1 1 0 .4.2.6.6.6 1v39.7zm24-20.3C14 70.5 8.7 63 .8 60.4c-.5-.2-1.1.1-1.3.6-.2.5.1 1.1.6 1.3 7.2 2.3 11.9 9 11.9 16.5S7.2 92.9.2 95.4a1 1 0 00-.6 1.3c.1.4.5.7.9.7.1 0 .2 0 .3-.1A19.7 19.7 0 0014 78.8z" class="st0"/><path d="M6.5 55.3c-.5-.2-1.1 0-1.3.5-.2.5 0 1.1.5 1.3A23.5 23.5 0 0120 78.8c0 9.8-5.9 18.4-15 21.9-.5.2-.8.8-.6 1.3.2.4.5.6.9.6.1 0 .2 0 .4-.1C15.6 98.7 22 89.4 22 78.8c0-10.3-6.1-19.5-15.5-23.5z" class="st0"/><path d="M5 78.8c0-6-4-11.3-9.7-13-.5-.2-1.1.2-1.2.7-.2.5.2 1.1.7 1.2 4.9 1.4 8.3 6 8.3 11s-3.4 9.6-8.3 11c-.5.2-.8.7-.7 1.2.1.4.5.7 1 .7h.3C1 90.1 5 84.7 5 78.8z" class="st0"/></svg>
