<svg viewBox="-38 56.3 59.7 45.9"><path fill="#888" d="M-9.6 56.7c-1-.6-2.1-.5-3.1 0l-.1.1-13.6 11.5H-37c-.6 0-1 .4-1 1v19c0 .3.1.5.3.7.2.2.4.3.7.3h10.6l13.6 12.4s.1.1.2.1c.5.3 1 .4 1.6.4.5 0 1-.1 1.5-.4 1-.6 1.6-1.6 1.6-2.8V59.4c-.1-1.1-.7-2.2-1.7-2.7zm-.4 42.4c0 .4-.2.8-.6 1-.2.1-.5.3-1 0L-25 87.8v-4.6c0-.6-.4-1-1-1s-1 .4-1 1v4h-9v-17h9v4c0 .6.4 1 1 1s1-.4 1-1v-4.5l13.4-11.3c.5-.2.9-.1 1 0 .4.2.6.6.6 1v39.7z"/><path fill="#888" stroke="#888" stroke-miterlimit="10" d="M21 69.6l-1-1-9.3 9.4-9.4-9.4-.9 1 9.3 9.3-9.3 9.4.9.9 9.4-9.3 9.3 9.3 1-.9-9.4-9.4z"/></svg>
