<svg xmlns="http://www.w3.org/2000/svg" viewBox="-19 21 60 60"><circle cx="11" cy="51" r="28" fill="#f3f3f3"/><path fill="#a1a1a1" d="M11 22c-15.9 0-29 13.1-29 29s13.1 29 29 29 29-13.1 29-29-13-29-29-29zm0 57c-15.4 0-28-12.6-28-28s12.6-28 28-28 28 12.6 28 28-12.6 28-28 28z"/><path fill="#a1a1a1" stroke="#a1a1a1" stroke-miterlimit="10" d="M7.4 59.7h8.3c1.4 0 2.6-1.2 2.6-2.6v-4.2l5.7 5.7c.3.2.6.4 1 .4.2 0 .4 0 .5-.1.5-.2.9-.7.9-1.4V45.1c0-.6-.3-1.1-.9-1.4-.5-.2-1.1-.1-1.5.2l-5.7 5.6v-4.6c0-1.5-1.1-2.6-2.5-2.6H.1c-1.4 0-2.5 1.2-2.5 2.6v12.3c0 1.4 1.1 2.5 2.4 2.5h7.4m10-2.6c0 .9-.8 1.7-1.7 1.7H8.3h0H.1c-.8 0-1.4-.7-1.4-1.5V45c0-.9.7-1.6 1.5-1.6h15.7c.8 0 1.5.7 1.5 1.6v12.1h0zm7.9.4c0 .2-.2.3-.2.4-.1 0-.2.1-.4-.1l-6.3-6.2c-.1-.1-.1-.2-.1-.3s0-.2.1-.3l6.3-6.1c.1-.1.2-.1.2-.1h.1s.2.1.2.4l.1 12.3h0z"/></svg>
