<svg xmlns="http://www.w3.org/2000/svg" viewBox="-19 21 60 60"><style>.st0{fill:#fff}</style><path d="M11 22c-16 0-29 13.1-29 29s13 29 29 29 29-13.1 29-29-13-29-29-29zm0 57c-15.4 0-28-12.6-28-28s12.6-28 28-28 28 12.6 28 28-12.6 28-28 28z" class="st0"/><circle cx="11" cy="51" r="28" fill="#d8d8d8"/><path d="M11 62.7c-8.1 0-14.4-3.2-14.4-7.2.1-1.5.9-3 2.1-3.8.4-.3 1-.2 1.3.2.3.4.2 1-.2 1.3-.8.5-1.4 1.4-1.5 2.4 0 2.6 5.2 5.4 12.6 5.4.5 0 .9.4.9.9s-.3.8-.8.8zm2.7-.1c-.5 0-.9-.4-.9-.9s.4-.9.9-.9c5.7-.5 10-2.8 10-5.3a3 3 0 00-1.5-2.4c-.4-.3-.5-.9-.2-1.3s.9-.5 1.3-.2c1.3.9 2.1 2.3 2.1 3.8 0 3.6-4.8 6.5-11.7 7.2z" class="st0"/><path d="M8.3 65.4a.9.9 0 01-.9-.9c0-.2.1-.5.3-.6l2.1-2.1-2.1-2.1c-.4-.4-.4-.9 0-1.3s.9-.4 1.3 0l2.7 2.7c.4.4.4.9 0 1.3L9 65.1c-.2.2-.5.3-.7.3z" class="st0"/><path d="M19.1 58.2a.9.9 0 01-.9-.9V38.4H3.8v18.9c0 .5-.4.9-.9.9s-.9-.4-.9-.9V38.4c0-1 .8-1.8 1.8-1.8h14.4c1 0 1.8.8 1.8 1.8v18.9c0 .5-.4.9-.9.9z" class="st0"/><path d="M10.1 45.6H8.3c-1.5 0-2.7-1.2-2.7-2.7 0-1.5 1.2-2.7 2.7-2.7h1.8c1.5 0 2.7 1.2 2.7 2.7 0 1.5-1.2 2.7-2.7 2.7zM8.3 42c-.5 0-.9.4-.9.9s.4.9.9.9h1.8c.5 0 .9-.4.9-.9s-.4-.9-.9-.9H8.3z" class="st0"/></svg>
