<svg xmlns="http://www.w3.org/2000/svg" viewBox="0 0 65.6 66.6"><g fill="none" stroke="#888" stroke-width="3"><path stroke-linecap="round" stroke-linejoin="round" d="M13.7 8.7v-.86c0-3.53 2.38-6.34 5.3-6.34h39.84c2.88 0 5.26 2.81 5.26 6.34v37.8c0 3.46-2.38 6.26-5.26 6.26H56.9"/><path d="M6.76 14.7h39.88c2.88 0 5.26 2.81 5.26 6.34v37.8c0 3.46-2.38 6.26-5.26 6.26H6.76c-2.88 0-5.26-2.81-5.26-6.26V21c0-3.49 2.38-6.3 5.26-6.3z"/></g><path fill="none" stroke="#888" stroke-linecap="round" stroke-width="3" d="M13.2 39.88l9 9m18-17.99l-18 18"/></svg>
