<svg xmlns="http://www.w3.org/2000/svg" viewBox="-19 81 60 60"><circle cx="11" cy="111" r="28" fill="#f3f3f3"/><path fill="red" d="M11 82c-15.9 0-29 13.1-29 29s13.1 29 29 29 29-13.1 29-29-13-29-29-29zm0 57c-15.4 0-28-12.6-28-28s12.6-28 28-28 28 12.6 28 28-12.6 28-28 28z"/><path fill="#a1a1a1" stroke="#a1a1a1" stroke-miterlimit="10" d="M-5.8 108.9c.9-.9 2.2-1.7 3.7-2.4 3.6-1.7 8.2-2.5 13.2-2.5s9.6.9 13.1 2.5c3.2 1.4 5.1 3.3 5.1 5.1v.8c0 1.6.1 3.5-1.1 4.6-.9.8-2.2 1.1-4 .9-5.4-.6-5.4-2.7-5.4-5.2v-.4c0-.4-.6-1.7-7.8-1.7-2.4 0-4.2.1-5.5.4-.8.2-2.2.6-2.2 1.3v.4c0 2.5 0 4.6-5.4 5.2-1.8.2-3.1-.1-4-.9-1.2-1.1-1.2-3-1.1-4.6v-.8c.1-1 .5-1.9 1.4-2.7zm33.4 7.2c.8-.8.8-2.4.8-3.8v-.8c0-1.3-1.8-2.9-4.5-4.2-3.4-1.5-7.9-2.4-12.7-2.4s-9.4.8-12.7 2.4c-2.7 1.2-4.5 2.9-4.5 4.2v.8c0 1.4-.1 3 .8 3.9.6.6 1.7.8 3.2.6 4.5-.5 4.5-1.9 4.5-4.2v-.5c0-1.1 1-1.9 3-2.3 1.4-.3 3.3-.4 5.7-.4h0c6 0 8.8.9 8.8 2.7v.4c0 2.3 0 3.7 4.5 4.2 1.3.2 2.4 0 3.1-.6-.1 0 0 0 0 0z"/></svg>
