<svg xmlns="http://www.w3.org/2000/svg" viewBox="-20 22 58 58"><style>.st0{fill:#424242}</style><path d="M20.5 22v2h-28a4.95 4.95 0 00-3.9 8.1c-2.3.4-4.1 2.5-4.1 4.9 0 1.2.4 2.2 1.1 3.1-2.3.4-4.1 2.5-4.1 4.9 0 2.5 1.4 3.7 2.7 4.2-1 .9-1.7 2.3-1.7 3.8 0 2.8 2.2 5 5 5H1.9l-.7 3.4C.2 66 .8 71.1 1 72.6c.5 3.5 3.6 7.4 7 7.4h.2c1.6 0 4.3-.9 4.3-7 0-8 2-11.7 3.7-13.4 1.6-1.6 3.2-1.6 3.3-1.6h1v2h16V22h-16zm-1 34c-.1 0-2.4 0-4.7 2.1-2.9 2.8-4.3 7.8-4.3 14.9 0 1.9-.3 5-2.3 5H8c-2.2 0-4.6-3.1-5-5.7-.2-1.4-.8-6.3.1-10.5L4.3 56h-16.8c-1.7 0-3-1.3-3-3s1.3-3 3-3h10c.6 0 1-.4 1-1s-.4-1-1-1h-7c-.9 0-2.8 0-3.9-.2-2.6-.4-3.1-1.4-3.1-2.8 0-1.7 1.3-3 3-3h11c.6 0 1-.4 1-1s-.4-1-1-1h-8c-1.7 0-3-1.3-3-3s1.3-3 3-3h10c.6 0 1-.4 1-1s-.4-1-1-1h-7c-1.7 0-3-1.3-3-3s1.3-3 3-3h28v30h-1zm15 2h-12V24h12v34z" class="st0"/><path d="M28.5 37c2.8 0 5-2.2 5-5s-2.2-5-5-5-5 2.2-5 5 2.2 5 5 5zm0-8c1.7 0 3 1.3 3 3s-1.3 3-3 3-3-1.3-3-3 1.3-3 3-3z" class="st0"/></svg>
