<svg xmlns="http://www.w3.org/2000/svg" viewBox="71.3 20.5 155.3 62"><style>.st1{fill:#a1a1a1}</style><path fill="none" stroke="#a1a1a1" stroke-miterlimit="10" stroke-width="2" d="M217.7 81.5H80.3c-4.4 0-8-3.6-8-8v-44c0-4.4 3.6-8 8-8h137.3c4.4 0 8 3.6 8 8v44c.1 4.4-3.5 8-7.9 8z"/><path d="M174.8 43.8h1.6v14h-1.6zM127 56.7c-.1.2-.1.4 0 .6 0 .1.1.2.2.3l9.9 9.9c.3.3.8.3 1.2 0 .3-.3.3-.8 0-1.2l-8.5-8.5h25.1c.5 0 .8-.4.8-.8 0-.5-.4-.8-.8-.8h-25.1l8.5-8.5c.3-.3.3-.8 0-1.2-.2-.2-.4-.2-.6-.2s-.4.1-.6.2l-9.9 9.9c-.1.1-.2.2-.2.3z" class="st1"/><path d="M138.6 56.1h37.8v1.6h-37.8zM154.6 43.8H176v1.6h-21.4z" class="st1"/></svg>
