<svg xmlns="http://www.w3.org/2000/svg" viewBox="-23 24.9 52.1 52.1"><path fill="#a1a1a1" stroke="#a1a1a1" stroke-miterlimit="10" d="M28 32.6c0-4.4-12.1-6.7-24.1-6.7s-24.1 2.3-24.1 6.7c0 1 .6 1.9 1.7 2.7L-1.9 58v16.9c0 .4.2.8.6.9l.7.2L9.7 65.7v-7.8l16.6-22.7h0c1.1-.7 1.7-1.6 1.7-2.6zM4 27.8c13.5 0 22.2 2.9 22.2 4.8 0 .4-.4.9-1.1 1.3h0c-2.7 1.7-10.3 3.5-21 3.5s-18.3-1.8-21-3.5h0l-.4-.2c-.5-.4-.7-.7-.7-1.1-.2-2 8.4-4.8 22-4.8zm3.8 37.1L.1 72.6v-14h7.7v6.3zm.5-8.2H-.4L-14.7 37C-10.1 38.5-3 39.3 4 39.3s14-.8 18.7-2.3L8.3 56.7z"/></svg>
