<svg xmlns="http://www.w3.org/2000/svg" viewBox="-24 26.3 49.7 49.7"><style>.st0{fill:#a1a1a1;stroke:#a1a1a1;stroke-miterlimit:10}</style><path d="M2.9 40.2h8.7v9l13.2-10-13.2-10v9H2.9c-6.9 0-12.6 5.8-12.6 13 0 6.1-4.8 11-10.6 11h-1.9c-.5 0-1 .4-1 1s.4 1 1 1h1.9c6.9 0 12.6-5.8 12.6-13 0-6.1 4.8-11 10.6-11zm10.6-7.1l8 6-8 6v-12zM-22.2 40.2h1.9c2.6 0 5.1 1 7.1 2.8.2.2.4.3.6.3.3 0 .5-.1.7-.3.4-.4.3-1-.1-1.4a12.5 12.5 0 00-8.4-3.3h-1.9a1 1 0 00-1 1c.2.4.6.9 1.1.9zM11.6 62.1H2.9c-2.6 0-5.1-1-7-2.7-.4-.4-1-.3-1.4.1-.4.4-.3 1 .1 1.4 2.3 2.1 5.2 3.2 8.3 3.2h8.7v9l13.2-10-13.2-10v9zm1.9-5l8 6-8 6v-12z" class="st0"/></svg>
