<svg xmlns="http://www.w3.org/2000/svg" viewBox="0 0 52 52"><style>.st0{fill:#a1a1a1}</style><path d="M26 0C11.66 0 0 11.66 0 26s11.66 26 26 26 26-11.66 26-26S40.34 0 26 0zm0 50C12.77 50 2 39.23 2 26S12.77 2 26 2s24 10.77 24 24-10.77 24-24 24z" class="st0"/><path d="M26 37a1 1 0 00-1 1v2a1 1 0 102 0v-2a1 1 0 00-1-1zM26.11 9H26c-2.12 0-4.1.81-5.62 2.3A7.94 7.94 0 0018 17a1 1 0 102 0 5.96 5.96 0 016.09-6 6.11 6.11 0 015.9 5.91c.04 2.09-.99 4-2.74 5.14a9.54 9.54 0 00-4.25 8.1V33a1 1 0 102 0v-2.84c0-2.64 1.28-5.1 3.33-6.43A7.96 7.96 0 0034 16.89 8.05 8.05 0 0026.1 9z" class="st0"/></svg>
