<svg xmlns="http://www.w3.org/2000/svg" viewBox="-20 22 58 58"><style>.st0{fill:#424242}</style><path d="M-10.5 65c-2.8 0-5 2.2-5 5s2.2 5 5 5 5-2.2 5-5-2.2-5-5-5zm0 8c-1.7 0-3-1.3-3-3s1.3-3 3-3 3 1.3 3 3-1.3 3-3 3z" class="st0"/><path d="M36.5 57c0-2.5-1.4-3.7-2.7-4.2 1-.9 1.7-2.3 1.7-3.8 0-2.8-2.2-5-5-5H16.1l.7-3.4c1-4.5.3-9.7.1-11.2-.5-3.5-3.6-7.4-7-7.4h-.1c-1.6 0-4.3.9-4.3 7 0 8-2 11.7-3.7 13.4C.2 44-1.4 44-1.5 44h-1v-2h-16v38h16v-2h28a4.95 4.95 0 003.9-8.1c2.3-.4 4.1-2.5 4.1-4.9 0-1.2-.4-2.2-1.1-3.1 2.3-.4 4.1-2.5 4.1-4.9zm-53 21V44h12v34h-12zm48-18h-11c-.6 0-1 .4-1 1s.4 1 1 1h8c1.7 0 3 1.3 3 3s-1.3 3-3 3h-10c-.6 0-1 .4-1 1s.4 1 1 1h7c1.7 0 3 1.3 3 3s-1.3 3-3 3h-28V46h1c.1 0 2.4 0 4.7-2.1C6 41.1 7.5 36.1 7.5 29c0-1.9.3-5 2.3-5h.2c2.2 0 4.6 3.1 5 5.7.2 1.4.8 6.3-.1 10.5L13.7 46h16.8c1.7 0 3 1.3 3 3s-1.3 3-3 3h-10c-.6 0-1 .4-1 1s.4 1 1 1h7c.9 0 2.8 0 3.9.2 2.6.4 3.1 1.4 3.1 2.8 0 1.7-1.3 3-3 3z" class="st0"/></svg>
