<svg xmlns="http://www.w3.org/2000/svg" viewBox="0 0 230 160"><style>.st0{fill:#a1a1a1}.st1{fill:none;stroke:#a1a1a1;stroke-width:7;stroke-linecap:round;stroke-linejoin:round;stroke-miterlimit:10}</style><path d="M205.3 7c9.5 0 17.2 7.7 17.2 17.2v111.5c0 9.5-7.7 17.2-17.2 17.2h-181C14.7 153 7 145.3 7 135.8V24.2C7 14.7 14.7 7 24.2 7h181.1m0-7h-181A24.3 24.3 0 000 24.2v111.5A24.3 24.3 0 0024.2 160h181c13.3 0 24.2-10.9 24.2-24.2V24.2C229.5 10.9 218.6 0 205.3 0z" class="st0"/><path d="M205 0l16 5.5A25.8 25.8 0 00205 0zm16 5.5c.1.1.2.2.3.2l.2-.1-.5-.1zM25 0C18.7 0 12.9 2.2 8.5 5.9L12 4.7 25 0z" class="st0"/><path d="M220.3 15c1.7 2.6 2.7 5.5 2.7 8.6v112.9c0 9.1-8.1 16.5-18 16.5H25c-9.9 0-18-7.4-18-16.5v-113c0-3 .9-5.9 2.5-8.4L104 81c3.2 2.2 7 3.4 11 3.4s7.8-1.2 11-3.4l94.3-66m1-9.3L122 75.3c-2.1 1.5-4.5 2.2-7 2.2s-4.9-.7-7-2.2L8.5 5.9C3.3 10.2 0 16.5 0 23.5v112.9c0 13 11.2 23.6 25 23.6h180c13.7 0 25-10.6 25-23.5v-113c0-7.1-3.4-13.4-8.7-17.8z" class="st0"/><path d="M87.5 64.5l-38 45M141.5 64.5l38 45" class="st1"/></svg>
