<svg xmlns="http://www.w3.org/2000/svg" viewBox="-19 81 60 60"><style>.st2{fill:#a1a1a1;stroke:#a1a1a1;stroke-miterlimit:10}</style><circle cx="11" cy="111.2" r="28" fill="#f3f3f3"/><path fill="#a1a1a1" d="M11 82c-15.9 0-29 13.1-29 29s13.1 29 29 29 29-13.1 29-29-13-29-29-29zm0 57c-15.4 0-28-12.6-28-28s12.6-28 28-28 28 12.6 28 28-12.6 28-28 28z"/><path d="M18.5 113.7c-.3 0-.5.2-.5.5v-.1c0 3.8-3.1 7-7 7s-7-3.1-7-7v.1c0-.3-.2-.5-.5-.5s-.5.2-.5.5v-.1a8 8 0 007.5 8v2.6H7.9c-.3 0-.5.2-.5.5s.2.5.5.5h6c.3 0 .5-.2.5-.5s-.2-.5-.5-.5h-2.5V122a8 8 0 007.5-8v.1c.1-.2-.2-.4-.4-.4z" class="st2"/><path d="M11 119.5c3 0 5.5-2.5 5.5-5.5v-12c0-3-2.5-5.5-5.5-5.5S5.5 99 5.5 102v12c0 3.1 2.4 5.5 5.5 5.5zM6.5 102c0-2.5 2-4.5 4.5-4.5s4.5 2 4.5 4.5v12c0 2.5-2 4.5-4.5 4.5s-4.5-1.9-4.5-4.4V102z" class="st2"/></svg>
