<svg xmlns="http://www.w3.org/2000/svg" viewBox="0 0 640 360"><style>.st0{display:none;fill:#a1a1a1}.st1{fill:none;stroke:#a1a1a1;stroke-width:7;stroke-miterlimit:10}</style><path d="M321.4 100.5c-44.2-.8-80.8 34.3-81.6 78.2a79.2 79.2 0 0025 59.1l-.1.1 2.6 2.2c.2.1.3.3.5.4 1.4 1.2 2.8 2.3 4.2 3.3.5.3.9.7 1.4 1 1.5 1.1 3.1 2.1 4.7 3.1.4.2.7.4 1.1.6 1.8 1 3.6 2 5.4 2.9.1.1.3.1.4.2 6 2.9 12.5 5.1 19.3 6.4.2 0 .4.1.5.1 2.1.4 4.2.7 6.4 1 .3 0 .5 0 .8.1 2.1.2 4.3.4 6.5.4s4.3 0 6.5-.2h.8c2.1-.2 4.3-.4 6.4-.7.2 0 .4-.1.5-.1 6.7-1.1 13.2-3 19.2-5.6.2-.1.4-.2.7-.3 1.8-.8 3.6-1.7 5.3-2.6.4-.2.9-.5 1.3-.7 1.6-.9 3.1-1.8 4.7-2.8.5-.4 1.1-.7 1.6-1.1 1.3-.9 2.6-1.8 3.8-2.8.3-.2.6-.4.8-.6l2.7-2.2-.1-.1a79.09 79.09 0 0027.3-58.4c1-43.8-34.4-80.1-78.6-80.9z" class="st0"/><path d="M408.1 288.9c-2.1 1.5-4.1 2.9-6.3 4.3-1 .6-1.9 1.3-2.9 1.9-2.8 1.7-5.6 3.3-8.5 4.8-.6.3-1.3.6-1.9 1-6.6 3.4-13.5 6.3-20.5 8.6-.2.1-.5.2-.7.3-3.7 1.2-7.4 2.3-11.2 3.2-3.8.9-7.7 1.7-11.5 2.3-.1 0-.2 0-.3.1-3.6.6-7.3 1-11 1.3-.7.1-1.3.1-2 .1a137.37 137.37 0 01-22.1-.1c-.6 0-1.3-.1-1.9-.1-3.7-.3-7.4-.8-11.1-1.4-.2 0-.3-.1-.5-.1-7.8-1.3-15.4-3.2-22.9-5.7-.2-.1-.5-.2-.7-.2-3.7-1.2-7.3-2.6-10.9-4.2h-.1c-3.4-1.5-6.7-3.1-10-4.8-.4-.2-.9-.4-1.3-.7-3-1.6-5.9-3.3-8.8-5.1-.9-.5-1.7-1.1-2.6-1.6-2.7-1.7-5.3-3.5-7.9-5.4-.3-.2-.5-.4-.8-.6l.6-.3 46.5-25.1c8-4.3 13-12.6 13-21.7v-21l-1.4-1.6c-.1-.1-12.8-15.5-17.6-36.2l-.5-2.3-2-1.3a9.6 9.6 0 01-4.5-8.1v-20.7c0-2.7 1.2-5.2 3.3-7.1l1.9-1.7v-32.5l-.1-.8c0-.1-1.8-14.2 8.2-25.4 8.5-9.6 23.1-14.5 43.3-14.5 20.1 0 34.6 4.8 43.2 14.4 9.9 11.1 8.3 25.4 8.3 25.5l-.1 30.6 1.9 2.6c2.1 1.9 1.5 6.2 1.5 8.9v20.7c0 4.2-.2 7.9-4.3 9.2l-2.9.9-.9 2c-3.5 10.7-9.3 21.4-15.6 30.2-1.5 2.2-3 4.1-4.3 5.5l-1.5 1.6v21.6c0 9.4 5.3 17.9 13.7 22l49.7 24.7c.3.2.6.3.9.5-.6.6-1.3 1-1.9 1.5z" class="st0"/><path d="M368.1 237.8c-.9-.6-1.8-1.1-2.7-1.6l-25.2-12.5c-2.3-1.1-3.7-4.7-3.7-7.2v-8.7c.6-.7 1.2-1.5 1.8-2.4 3.3-4.6 6.3-11 8.2-16.5 3.8-1.8 4.8-4.1 4.8-8.4V170c0-2.6.6-4.8-1.7-7.9v-12.9c.2-1.5 1.6-8.8-4.7-16-5.5-6.2-13-8.5-25-8.5s-19.6 2.2-25 8.4c-6.3 7.1-4.9 14.4-4.7 15.9v14c-1.7 2-2.6 4.4-2.6 7v10.5c0 3.3 1.5 6.3 4 8.3 2.4 9.4 7.4 16.5 9.2 18.9v8.5c0 2.4-1.3 6-3.4 7.1L273.9 236c-.7.4-1.5.9-2.2 1.4-15.5-13.8-27.5-35.1-27.5-57.3 0-41.5 34-75.3 75.9-75.3s75.9 33.8 75.9 75.3c-.1 22.4-12.3 43.9-27.9 57.7z" class="st0"/><path d="M3.2 93.3v-90h90M93.2 357h-90v-90M547 3.3h90v90M637 267v90h-90" class="st1"/><path fill="#a1a1a1" d="M312.9 218.5V217c0-11.2 2.6-22.5 23.9-40.2 20-16.7 24.1-25.9 24.2-40 .1-17.5-12.4-36.2-40.5-36.2-24.7 0-40.2 12.6-44.6 37.4h-9.5c2.7-19.8 16.7-46 54.2-46 34.7 0 50.1 22.9 50.1 44.3 0 20.3-7.7 30.2-28.2 47.3-15.6 12.9-20.2 22.8-20.2 33.7v1.2h-9.4zm0 53.5v-28.8h9.5V272h-9.5z"/></svg>
