<svg xmlns="http://www.w3.org/2000/svg" viewBox="52 -52.8 204.8 204.8"><style>.st0{fill:#a1a1a1;stroke:#a1a1a1;stroke-miterlimit:10}</style><path d="M154.4-52.8C97.9-52.8 52-6.9 52 49.6S97.9 152 154.4 152s102.4-45.9 102.4-102.4S210.9-52.8 154.4-52.8zm0 198c-52.7 0-95.6-42.9-95.6-95.6S101.7-46 154.4-46 250-3.1 250 49.6s-42.9 95.6-95.6 95.6z" class="st0"/><path d="M154.4-18.7c-37.6 0-68.3 30.6-68.3 68.3 0 37.6 30.6 68.3 68.3 68.3 37.6 0 68.3-30.6 68.3-68.3 0-37.6-30.7-68.3-68.3-68.3zm0 129.7C120.5 111 93 83.5 93 49.6s27.6-61.4 61.4-61.4 61.4 27.6 61.4 61.4-27.5 61.4-61.4 61.4z" class="st0"/><path d="M154.4 29.1c-11.3 0-20.5 9.2-20.5 20.5s9.2 20.5 20.5 20.5 20.5-9.2 20.5-20.5-9.2-20.5-20.5-20.5zm0 34.2c-7.5 0-13.7-6.1-13.7-13.7s6.1-13.7 13.7-13.7c7.5 0 13.7 6.1 13.7 13.7s-6.2 13.7-13.7 13.7zM154.4-5c-3.8 0-6.8 3.1-6.8 6.8s3.1 6.8 6.8 6.8a6.8 6.8 0 000-13.6zM154.4 90.6c-3.8 0-6.8 3.1-6.8 6.8s3.1 6.8 6.8 6.8a6.8 6.8 0 000-13.6z" class="st0"/><circle cx="106.6" cy="49.6" r="6.8" class="st0"/><circle cx="202.2" cy="49.6" r="6.8" class="st0"/><path d="M151 5.2h6.8v27.3H151zM171.5 46.2h27.3V53h-27.3zM110 46.2h27.3V53H110zM151 66.7h6.8v30.7H151zM151-32.3h6.8v17.1H151zM151 114.5h6.8v17.1H151zM72.5 46.2h17.1V53H72.5zM219.3 46.2h17.1V53h-17.1z" class="st0"/><path d="M99.1-10.8h6.8V6.3h-6.8z" class="st0" transform="rotate(135 102.49 -2.3)"/><path d="M202.9 93h6.8v17.1h-6.8z" class="st0" transform="rotate(135 206.3 101.5)"/><path d="M197.8-5.7h17.1v6.8h-17.1z" class="st0" transform="rotate(135 206.29 -2.3)"/><path d="M94 98.1h17.1v6.8H94z" class="st0" transform="rotate(135 102.5 101.5)"/></svg>
