<svg xmlns="http://www.w3.org/2000/svg" viewBox="206 -206 512 512"><style>.st0{fill:#a1a1a1}</style><path d="M462-206C320.8-206 206-91.2 206 50s114.8 256 256 256S718 191.2 718 50 603.2-206 462-206zm0 490.7c-129.4 0-234.7-105.3-234.7-234.7S332.6-184.7 462-184.7 696.7-79.4 696.7 50 591.4 284.7 462 284.7z" class="st0"/><path d="M599.4 93.1c-5.8-1.4-11.5 2.2-12.8 7.9-13.8 57.9-65 98.3-124.5 98.3-59.7 0-110.9-40.5-124.6-98.4a10.64 10.64 0 00-20.7 4.9c16 67.6 75.8 114.9 145.3 114.9 69.5 0 129.3-47.2 145.3-114.7 1.3-5.8-2.3-11.5-8-12.9z" class="st0"/><circle cx="376.7" cy="-14" r="21.3" class="st0"/><circle cx="547.3" cy="-14" r="21.3" class="st0"/></svg>
