<svg xmlns="http://www.w3.org/2000/svg" viewBox="0 0 100 100"><defs><style>.cls-2,.cls-4,.cls-5,.cls-6,.cls-7,.cls-8,.cls-9{fill:none;stroke:#a8a8a8;stroke-miterlimit:10}.cls-2{stroke-width:.21px}.cls-3{fill:#cce5c1}.cls-4{stroke-width:.13px}.cls-5{stroke-width:.11px}.cls-6{stroke-width:.18px}.cls-7{stroke-width:.11px}.cls-8{stroke-width:.12px}.cls-9{stroke-width:.11px}</style></defs><path fill="#dfdfdf" d="M0 0h100v100H0z"/><path d="M4.53 8.73a3.12 3.12 0 00-2.37-.48M4.9 9.8a7.69 7.69 0 00-3.9.9m6-5.89a4.64 4.64 0 00-1-1.69m1.78 1.59a3.76 3.76 0 00-.71-2.84m2.66 2.52a1.62 1.62 0 01-.54-.71 9.51 9.51 0 01-.82-2.61m2.84 1.7l-.44-1.51a1.83 1.83 0 01-.09-1.11M12.66 16a.91.91 0 00.24 1.09 1.06 1.06 0 001.13.1 1.28 1.28 0 00.66-1 1 1 0 00-.11-.64c-.38-.55-1.65-.07-1.92.45zm2.12-6.61a1.87 1.87 0 00-.49.13 1.16 1.16 0 00-.45 1.1 2.19 2.19 0 00.53 1.53.48.48 0 00.22.14.53.53 0 00.29 0 3.26 3.26 0 001.92-1.89 1.4 1.4 0 00.09-.92c-.37-1.18-1.46-.22-2.11-.09zm-4.18.78a1.33 1.33 0 00-1 .14 1.53 1.53 0 00-.55.8 3.37 3.37 0 00.67 3.31 1.15 1.15 0 00.39.3 1.33 1.33 0 001-.12 1.9 1.9 0 00.82-.54 1.73 1.73 0 00.28-1.06c-.05-1.25-.29-2.56-1.61-2.83z" class="cls-2"/><path d="M11 18.79a7.07 7.07 0 003.42.52 4.69 4.69 0 003-1.55 8 8 0 001.38-3.31" class="cls-2"/><path d="M3.77 10.22a14.72 14.72 0 001.82 6.61 13.36 13.36 0 004.56 5.32 7.49 7.49 0 006.78.77 7.51 7.51 0 003.31-3 14.29 14.29 0 001.64-4.21 10.17 10.17 0 00.35-2.45 11.11 11.11 0 00-.41-2.62 19.67 19.67 0 00-.75-2.44 12.58 12.58 0 00-5.86-6.49 4.79 4.79 0 00-1.33-.5 5.06 5.06 0 00-1.42 0c-3.79.4-7.09 2.28-8.26 6.06a9.84 9.84 0 00-.43 2.95z" class="cls-2"/><path d="M19.09 4.77a2.64 2.64 0 011.58-.65 1.87 1.87 0 011.17.5 3.39 3.39 0 01.75 1 2.33 2.33 0 01.3 1.18 1.7 1.7 0 01-.57 1.2 2.46 2.46 0 01-1.14.56M4.5 14.39a2.35 2.35 0 00-.5 1.86A3.9 3.9 0 004.82 18a2.61 2.61 0 00.89.8 1.25 1.25 0 001.16 0m4.62 4.09Q16 34 20.62 45.1a1.5 1.5 0 00.64.86A1.39 1.39 0 0022 46a10.49 10.49 0 004.93-1.88 1 1 0 00.35-.36.91.91 0 000-.53 8.13 8.13 0 00-.71-2 87.77 87.77 0 00-11.11-17.89m5.74 22.58q.55 1.57 1.22 3.1m4.9-5.23c.59 1 0 2.28.43 3.36M13.27 36a1.79 1.79 0 00.26 1.38 1.15 1.15 0 001.27.43 1.38 1.38 0 00.7-.72 2.51 2.51 0 00-.07-2.3 1.2 1.2 0 00-.4-.45c-.98-.6-1.63.95-1.76 1.66zm9.03-5.61a8 8 0 004.59-.25 1.2 1.2 0 00.79-.49 1.07 1.07 0 00.1-.38 4.52 4.52 0 00-.72-3 2.5 2.5 0 00-.7-.73 3.34 3.34 0 00-2.5-.15 7.27 7.27 0 01-2.27 0c-1.79-.18-2.25 1.9-1.52 3.23a3.92 3.92 0 002.23 1.77z" class="cls-2"/><path d="M9.83 12.44a.82.82 0 001.65 0 .82.82 0 00-1.65 0z" class="cls-3"/><path d="M77.91 8.09A3.12 3.12 0 0078 5.67m-1.08 2.97a7.69 7.69 0 00-1.56-3.69m6.84 4.91a4.64 4.64 0 001.49-1.29m-1.26 2.02a3.76 3.76 0 002.68-1.19m-2.03 3.06a1.62 1.62 0 01.6-.66 9.51 9.51 0 012.43-1.26m-1.18 3.09l1.41-.7a1.83 1.83 0 011.08-.28m-15.26 4.71a.91.91 0 00-1 .43 1.06 1.06 0 00.1 1.13 1.28 1.28 0 001.06.48 1 1 0 00.61-.22c.5-.48-.21-1.65-.77-1.82zm6.84.94a1.87 1.87 0 00-.21-.46 1.16 1.16 0 00-1.16-.25 2.19 2.19 0 00-1.42.79.48.48 0 00-.1.24.53.53 0 00.09.28 3.26 3.26 0 002.16 1.57 1.4 1.4 0 00.92-.07c1.14-.58 0-1.49-.28-2.1zm-1.46-3.98a1.33 1.33 0 00-.31-.94 1.53 1.53 0 00-.88-.41 3.37 3.37 0 00-3.15 1.23 1.15 1.15 0 00-.23.43 1.33 1.33 0 00.29 1 1.9 1.9 0 00.67.71 1.73 1.73 0 001.15.06c1.18-.27 2.43-.74 2.46-2.08z" class="cls-2"/><path d="M69.12 16.22a7.07 7.07 0 00.08 3.45 4.69 4.69 0 002.06 2.72 8 8 0 003.5.78" class="cls-2"/><path d="M76.3 7.6a14.72 14.72 0 00-6.19 2.94A13.36 13.36 0 0065.67 16a7.49 7.49 0 00.42 6.81 7.51 7.51 0 003.52 2.74 14.29 14.29 0 004.39.85 10.17 10.17 0 002.47-.08 11.11 11.11 0 002.53-.87 19.67 19.67 0 002.27-1.16 12.58 12.58 0 005.37-6.9 4.79 4.79 0 00.26-1.4 5.06 5.06 0 00-.24-1.4c-1-3.66-3.47-6.59-7.41-7.08a9.84 9.84 0 00-2.95.09z" class="cls-2"/><path d="M84.33 21.74a2.64 2.64 0 01.91 1.45 1.87 1.87 0 01-.24 1.23 3.39 3.39 0 01-.89.92 2.33 2.33 0 01-1.11.5 1.7 1.7 0 01-1.2-.36 2.46 2.46 0 01-.75-1M72.33 9a2.35 2.35 0 00-1.92-.16A3.9 3.9 0 0068.79 10a2.61 2.61 0 00-.63 1 1.25 1.25 0 00.19 1.14m-3.18 5.27Q55 23.77 44.89 30.25a1.5 1.5 0 00-.73.78 1.39 1.39 0 00.07.74 10.49 10.49 0 002.71 4.52 1 1 0 00.42.28.91.91 0 00.53-.07 8.13 8.13 0 001.84-1 87.77 87.77 0 0015.7-14.06M44.18 31q-1.45.82-2.84 1.74m6 3.88c-.86.75-2.24.44-3.23 1m8.47-16.19a1.79 1.79 0 00-1.31.49 1.15 1.15 0 00-.21 1.33 1.38 1.38 0 00.83.57 2.51 2.51 0 002.26-.47 1.2 1.2 0 00.37-.47c.41-1.07-1.23-1.44-1.94-1.45zm7.08 7.92a8 8 0 001 4.48 1.2 1.2 0 00.62.69 1.07 1.07 0 00.39 0 4.52 4.52 0 002.82-1.23 2.5 2.5 0 00.6-.81 3.34 3.34 0 00-.24-2.48 7.27 7.27 0 01-.37-2.24c-.14-1.8-2.26-1.89-3.44-.94a3.92 3.92 0 00-1.38 2.53z" class="cls-2"/><path d="M75.17 14a.82.82 0 00.29 1.62.82.82 0 00-.29-1.62z" class="cls-3"/><path d="M44 64.14a3.12 3.12 0 00-2.39.36m3.12.5a7.69 7.69 0 00-3.37 2.18M45 59.61a4.64 4.64 0 00-1.53-1.24m2.23.88a3.76 3.76 0 00-1.64-2.43m3.36 1.47a1.62 1.62 0 01-.75-.48A9.51 9.51 0 0145 55.64m3.26.63L47.32 55a1.83 1.83 0 01-.46-1m7.29 14.2a.91.91 0 00.6.94 1.06 1.06 0 001.1-.29 1.28 1.28 0 00.29-1.12 1 1 0 00-.32-.56c-.57-.46-1.6.45-1.67 1.03zm-.27-6.93a1.87 1.87 0 00-.42.29 1.16 1.16 0 000 1.19 2.19 2.19 0 001 1.26.48.48 0 00.26.05.53.53 0 00.26-.14 3.26 3.26 0 001.17-2.4 1.4 1.4 0 00-.23-.89c-.78-.99-1.48.29-2.04.64zm-3.66 2.16a1.33 1.33 0 00-.87.47 1.53 1.53 0 00-.25.94 3.37 3.37 0 001.76 2.88 1.15 1.15 0 00.47.15 1.33 1.33 0 00.91-.46 1.9 1.9 0 00.58-.79 1.73 1.73 0 00-.14-1.14c-.45-1.1-1.13-2.25-2.46-2.05z" class="cls-2"/><path d="M53.55 71.39a7.07 7.07 0 003.39-.68 4.69 4.69 0 002.32-2.5 8 8 0 00.16-3.59" class="cls-2"/><path d="M43.82 65.81a14.72 14.72 0 004 5.59 13.36 13.36 0 006.11 3.44 6.89 6.89 0 008.72-5.54 14.29 14.29 0 00.11-4.52 10.17 10.17 0 00-.51-2.42A11.11 11.11 0 0060.93 60a19.67 19.67 0 00-1.54-2 12.58 12.58 0 00-7.73-4.09 4.79 4.79 0 00-1.42 0 5.06 5.06 0 00-1.34.48C45.48 56 43 58.94 43.21 62.9a9.84 9.84 0 00.61 2.91z" class="cls-2"/><path d="M56.35 55.45a2.64 2.64 0 011.27-1.15 1.87 1.87 0 011.27.07 3.39 3.39 0 011.06.72 2.33 2.33 0 01.69 1 1.7 1.7 0 01-.15 1.24 2.46 2.46 0 01-.88.91M45.93 69.48a2.35 2.35 0 00.18 1.92 3.9 3.9 0 001.37 1.4 2.61 2.61 0 001.11.44 1.25 1.25 0 001.09-.39m5.73 2.23q8 8.91 16.17 17.74a1.5 1.5 0 00.89.59 1.39 1.39 0 00.72-.2 10.49 10.49 0 004-3.46 1 1 0 00.2-.46.91.91 0 00-.16-.51 8.13 8.13 0 00-1.35-1.63 87.77 87.77 0 00-16.57-13m13.1 19.25q1.06 1.29 2.2 2.5m2.82-6.6c.89.71.82 2.13 1.55 3m-17.42-5.53a1.79 1.79 0 00.72 1.23 1.15 1.15 0 001.34 0 1.38 1.38 0 00.38-1 2.51 2.51 0 00-.85-2.14 1.2 1.2 0 00-.53-.28c-1.09-.19-1.17 1.5-1.06 2.19zm6.57-8.34a8 8 0 004.23-1.8 1.2 1.2 0 00.57-.73 1.07 1.07 0 000-.39 4.52 4.52 0 00-1.7-2.57 2.5 2.5 0 00-.91-.45 3.34 3.34 0 00-2.4.71 7.27 7.27 0 01-2.14.76c-1.75.45-1.47 2.56-.32 3.55a3.92 3.92 0 002.67.92z" class="cls-2"/><path d="M50.27 65.82a.82.82 0 001.55-.56.82.82 0 00-1.55.56z" class="cls-3"/><path d="M39.71 7.22A1.87 1.87 0 0039 5.94m.36 1.86a4.61 4.61 0 00-1.92-1.45m5.03.5a2.78 2.78 0 00.38-1.12m-.04 1.43a2.26 2.26 0 001-1.42m-.11 2.2a1 1 0 01.12-.52A5.71 5.71 0 0144.71 6M45 8l.52-.79a1.1 1.1 0 01.48-.47m-6.5 7.02a.55.55 0 00-.41.53.64.64 0 00.39.56.77.77 0 00.69-.07.58.58 0 00.25-.3c.14-.41-.58-.8-.92-.72zm3.85-1.58a1.12 1.12 0 00-.25-.18.7.7 0 00-.68.22 1.31 1.31 0 00-.5.83.29.29 0 000 .16.32.32 0 00.13.12 2 2 0 001.59.17.84.84 0 00.46-.31c.43-.63-.44-.76-.75-1.01zm-1.97-1.61a.8.8 0 00-.45-.4.92.92 0 00-.58.05 2 2 0 00-1.26 1.58.69.69 0 000 .29.8.8 0 00.44.42 1.14 1.14 0 00.56.17 1 1 0 00.62-.31c.55-.48 1.06-1.09.67-1.8z" class="cls-4"/><path d="M37.58 14.08a4.24 4.24 0 001.08 1.77 2.81 2.81 0 001.88.79A4.78 4.78 0 0042.6 16" class="cls-4"/><path d="M38.72 7.45a8.83 8.83 0 00-2.34 3.38A8 8 0 0035.7 15a4.49 4.49 0 002.3 3.39 4.5 4.5 0 002.65.37 8.57 8.57 0 002.57-.87 6.1 6.1 0 001.26-.78 6.67 6.67 0 001-1.2 11.8 11.8 0 00.83-1.29A7.55 7.55 0 0047 9.43a2.88 2.88 0 00-.28-.81 3 3 0 00-.5-.62c-1.64-1.59-3.78-2.38-6-1.46a5.9 5.9 0 00-1.5.91z" class="cls-4"/><path d="M47.14 12.38a1.58 1.58 0 01.91.48 1.12 1.12 0 01.22.73 2 2 0 01-.19.75 1.4 1.4 0 01-.43.59 1 1 0 01-.73.17 1.48 1.48 0 01-.7-.31m-9.13-5.4a1.41 1.41 0 00-1 .49 2.34 2.34 0 00-.51 1.06 1.56 1.56 0 000 .72.75.75 0 00.44.53m-.14 3.69q-3.38 6.36-6.69 12.76a.9.9 0 00-.15.62.84.84 0 00.26.36 6.29 6.29 0 002.77 1.54.58.58 0 00.3 0 .55.55 0 00.25-.19 4.88 4.88 0 00.64-1.1 52.66 52.66 0 003.94-12M29 29.23q-.51.86-1 1.75m4.38.24c-.22.65-1 .9-1.38 1.49m-.45-10.96a1.07 1.07 0 00-.53.65.69.69 0 00.29.75.83.83 0 00.6 0 1.51 1.51 0 001-.92.72.72 0 00.05-.35c-.08-.64-1.04-.34-1.41-.13zm6.05 1.99a4.83 4.83 0 001.88 2 .72.72 0 00.53.17.64.64 0 00.21-.1 2.71 2.71 0 001.1-1.49 1.5 1.5 0 00.07-.6 2 2 0 00-.89-1.21 4.36 4.36 0 01-.86-1c-.61-.89-1.74-.3-2.07.55a2.35 2.35 0 00.03 1.68z" class="cls-4"/><path d="M40 11.09a.49.49 0 00.64.76.49.49 0 00-.64-.76z" class="cls-3"/><path d="M7.27 41.27a1.62 1.62 0 00-.79-1m.58 1.55a4 4 0 00-1.86-1m4.38-.28a2.42 2.42 0 00.16-1m.18 1.22a2 2 0 00.67-1.37m.21 1.89a.84.84 0 010-.46 5 5 0 01.55-1.32m.58 1.63l.33-.75a1 1 0 01.34-.47M8.08 46.9a.47.47 0 00-.27.52.55.55 0 00.42.42.67.67 0 00.58-.16.5.5 0 00.19-.3c0-.38-.63-.6-.92-.48zm3.06-1.9a1 1 0 00-.24-.11.6.6 0 00-.55.29 1.14 1.14 0 00-.3.79.25.25 0 000 .13.28.28 0 00.13.08 1.7 1.7 0 001.39-.1.73.73 0 00.34-.33c.3-.63-.46-.61-.77-.75zm-1.93-1.12a.69.69 0 00-.44-.27.8.8 0 00-.49.13 1.76 1.76 0 00-.84 1.55.6.6 0 00.05.25.7.7 0 00.44.29 1 1 0 00.51.06.9.9 0 00.48-.36c.39-.53.73-1.1.29-1.65z" class="cls-5"/><path d="M6.49 47.46a3.68 3.68 0 001.19 1.35 2.44 2.44 0 001.73.4 4.15 4.15 0 001.66-.86" class="cls-5"/><path d="M6.47 41.62A7.67 7.67 0 005 44.86a7 7 0 000 3.65 3.9 3.9 0 002.45 2.58A3.91 3.91 0 009.8 51a7.45 7.45 0 002.07-1.13 5.3 5.3 0 001-.86 5.79 5.79 0 00.71-1.18 10.25 10.25 0 00.52-1.22 6.55 6.55 0 00-.17-4.56 2.5 2.5 0 00-.36-.65 2.64 2.64 0 00-.57-.48 4.67 4.67 0 00-5.33-.35 5.13 5.13 0 00-1.2 1.05z" class="cls-5"/><path d="M14.41 44.57a1.37 1.37 0 01.85.27 1 1 0 01.3.59 1.76 1.76 0 010 .67 1.22 1.22 0 01-.27.57.89.89 0 01-.6.26 1.28 1.28 0 01-.64-.16m-8.69-3.25a1.23 1.23 0 00-.82.58 2 2 0 00-.28 1 1.36 1.36 0 00.09.62.65.65 0 00.46.39m.5 3.15q-1.93 5.95-3.8 11.92a.78.78 0 000 .56.73.73 0 00.27.27 5.47 5.47 0 002.6.9.51.51 0 00.26 0 .48.48 0 00.19-.2 4.23 4.23 0 00.38-1 45.74 45.74 0 001.53-10.94M1.47 61.7q-.31.81-.55 1.65m3.71-.45c-.09.59-.75.93-1 1.48m-2-9.29a.93.93 0 00-.36.64.6.6 0 00.36.6.72.72 0 00.52-.05 1.31 1.31 0 00.74-.94.62.62 0 000-.31c-.19-.58-.97-.18-1.26.06zm5.48.79A4.19 4.19 0 009 57.32a.63.63 0 00.48.07.56.56 0 00.17-.12 2.35 2.35 0 00.71-1.44 1.3 1.3 0 000-.53 1.74 1.74 0 00-.95-.9 3.79 3.79 0 01-.9-.77c-.66-.67-1.54 0-1.69.78a2 2 0 00.29 1.47z" class="cls-5"/><path d="M8.15 44.53a.43.43 0 00.66.55.43.43 0 00-.66-.55z" class="cls-3"/><path d="M91.27 7.27a1.62 1.62 0 00-.79-1m.58 1.55a4 4 0 00-1.86-1m4.38-.28a2.42 2.42 0 00.16-1m.18 1.22a2 2 0 00.67-1.37m.21 1.89a.84.84 0 010-.46 5 5 0 01.55-1.32m.58 1.63l.33-.75a1 1 0 01.34-.47m-4.52 6.99a.47.47 0 00-.27.52.55.55 0 00.42.42.67.67 0 00.58-.16.5.5 0 00.17-.29c.02-.39-.61-.61-.9-.49zm3.06-1.9a1 1 0 00-.24-.11.6.6 0 00-.55.29 1.14 1.14 0 00-.3.79.25.25 0 000 .13.28.28 0 00.13.08 1.7 1.7 0 001.39-.1.73.73 0 00.34-.33c.3-.63-.46-.61-.77-.75zm-1.93-1.12a.69.69 0 00-.44-.27.8.8 0 00-.49.13 1.76 1.76 0 00-.84 1.55.6.6 0 00.05.25.7.7 0 00.44.29 1 1 0 00.51.06.9.9 0 00.48-.36c.39-.53.73-1.1.29-1.65z" class="cls-5"/><path d="M90.49 13.46a3.68 3.68 0 001.19 1.35 2.44 2.44 0 001.73.4 4.15 4.15 0 001.66-.86" class="cls-5"/><path d="M90.47 7.62A7.67 7.67 0 0089 10.86a7 7 0 000 3.65A3.59 3.59 0 0093.8 17a7.45 7.45 0 002.07-1.13 5.3 5.3 0 001-.86 5.79 5.79 0 00.71-1.18 10.25 10.25 0 00.52-1.22 6.55 6.55 0 00-.17-4.56 2.5 2.5 0 00-.36-.65 2.64 2.64 0 00-.57-.47 4.67 4.67 0 00-5.33-.35 5.13 5.13 0 00-1.2 1.04z" class="cls-5"/><path d="M98.41 10.57a1.37 1.37 0 01.85.27 1 1 0 01.3.59 1.76 1.76 0 010 .67 1.22 1.22 0 01-.27.57.89.89 0 01-.6.26 1.28 1.28 0 01-.64-.16m-8.69-3.25a1.23 1.23 0 00-.82.58 2 2 0 00-.28 1 1.36 1.36 0 00.09.62.65.65 0 00.46.39m.5 3.15q-1.93 5.95-3.79 11.92a.78.78 0 000 .56.73.73 0 00.27.27 5.47 5.47 0 002.6.9.51.51 0 00.26 0 .48.48 0 00.19-.2 4.23 4.23 0 00.38-1 45.74 45.74 0 001.56-10.87M85.47 27.7q-.31.81-.55 1.65m3.71-.45c-.09.59-.75.93-1 1.48m-2-9.29a.93.93 0 00-.36.64.6.6 0 00.36.6.72.72 0 00.52-.05 1.31 1.31 0 00.74-.94.62.62 0 000-.31c-.19-.58-.97-.18-1.26.06zm5.48.79A4.19 4.19 0 0093 23.32a.63.63 0 00.48.07.56.56 0 00.17-.12 2.35 2.35 0 00.71-1.44 1.3 1.3 0 000-.53 1.74 1.74 0 00-.95-.9 3.79 3.79 0 01-.9-.77c-.66-.67-1.54 0-1.69.78a2 2 0 00.29 1.47z" class="cls-5"/><path d="M92.15 10.53a.43.43 0 00.66.55.43.43 0 00-.66-.55z" class="cls-3"/><path d="M72.62 36a1.62 1.62 0 00-1.11.6m1.62-.3a4 4 0 00-1.26 1.7m.44-4.4a2.42 2.42 0 00-1-.33m1.27.03a2 2 0 00-1.23-.9m1.9.13a.84.84 0 01-.45-.1 5 5 0 01-1.2-.77m1.7-.27l-.68-.45a1 1 0 01-.41-.42m6.09 5.66a.47.47 0 00.46.35.55.55 0 00.49-.34.67.67 0 00-.06-.6.5.5 0 00-.26-.22c-.35-.12-.69.51-.63.81zm-1.36-3.35a1 1 0 00-.15.22.6.6 0 00.19.59 1.14 1.14 0 00.72.43.25.25 0 00.14 0 .28.28 0 00.1-.11 1.7 1.7 0 00.15-1.38.73.73 0 00-.27-.4c-.55-.37-.67.38-.88.65zm-1.41 1.71a.69.69 0 00-.34.39.8.8 0 000 .51 1.76 1.76 0 001.38 1.1.6.6 0 00.26 0 .7.7 0 00.36-.39 1 1 0 00.15-.49.9.9 0 00-.27-.53c-.39-.48-.92-.92-1.54-.59z" class="cls-5"/><path d="M78.58 37.85a3.68 3.68 0 001.54-.94 2.44 2.44 0 00.69-1.64 4.15 4.15 0 00-.56-1.78" class="cls-5"/><path d="M72.82 36.85a7.67 7.67 0 002.94 2 7 7 0 003.6.6 3.59 3.59 0 003.28-4.27A7.45 7.45 0 0081.9 33a5.3 5.3 0 00-.68-1.09 5.79 5.79 0 00-1-.91 10.25 10.25 0 00-1.12-.72 6.55 6.55 0 00-4.51-.63 2.5 2.5 0 00-.7.25 2.64 2.64 0 00-.57.47A4.67 4.67 0 0072 35.53a5.13 5.13 0 00.82 1.32z" class="cls-5"/><path d="M77.11 29.55a1.37 1.37 0 01.42-.79 1 1 0 01.63-.19 1.76 1.76 0 01.65.16 1.22 1.22 0 01.51.37.89.89 0 01.15.64 1.28 1.28 0 01-.27.6m-4.69 7.93a1.23 1.23 0 00.43.91 2 2 0 00.92.44 1.36 1.36 0 00.62 0 .65.65 0 00.46-.38m3.21.08q5.52 2.93 11.08 5.81a.78.78 0 00.54.13.73.73 0 00.32-.22 5.47 5.47 0 001.33-2.4.51.51 0 000-.26.48.48 0 00-.17-.22 4.23 4.23 0 00-1-.56 45.74 45.74 0 00-10.44-3.42m9.93 7.08q.75.44 1.52.83m.21-3.73c.56.19.78.9 1.29 1.2m-9.51.44a.93.93 0 00.57.46.6.6 0 00.65-.25.72.72 0 000-.52 1.31 1.31 0 00-.8-.9.62.62 0 00-.31 0c-.56 0-.29.84-.11 1.21zM87 38.69a4.19 4.19 0 001.75-1.64.63.63 0 00.15-.46.56.56 0 00-.09-.19 2.35 2.35 0 00-1.29-1 1.3 1.3 0 00-.52 0 1.74 1.74 0 00-1 .78 3.79 3.79 0 01-.91.75c-.78.53-.26 1.51.47 1.8a2 2 0 001.44-.04z" class="cls-5"/><path d="M76 35.71a.43.43 0 00.66-.55.43.43 0 00-.66.55z" class="cls-3"/><path d="M75.66 56.27a3.12 3.12 0 00-2.37-.48M76 57.34a7.69 7.69 0 00-3.91.9m6.07-5.89a4.64 4.64 0 00-1-1.69m1.76 1.59a3.76 3.76 0 00-.71-2.84m2.65 2.52a1.62 1.62 0 01-.54-.71 9.51 9.51 0 01-.82-2.61m2.84 1.71l-.44-1.51a1.83 1.83 0 01-.09-1.11m1.98 15.84a.91.91 0 00.21 1.09 1.06 1.06 0 001.13.1 1.28 1.28 0 00.66-1 1 1 0 00-.11-.64c-.35-.57-1.62-.09-1.89.45zm2.12-6.61a1.87 1.87 0 00-.49.13 1.16 1.16 0 00-.45 1.1 2.19 2.19 0 00.53 1.53.48.48 0 00.22.14.53.53 0 00.29 0 3.26 3.26 0 001.92-1.85A1.4 1.4 0 0088 57c-.34-1.16-1.44-.2-2.09-.07zm-4.18.79a1.33 1.33 0 00-1 .14 1.53 1.53 0 00-.55.8 3.37 3.37 0 00.69 3.34 1.15 1.15 0 00.39.3 1.33 1.33 0 001-.12 1.9 1.9 0 00.82-.54 1.73 1.73 0 00.26-1.12c-.05-1.23-.29-2.52-1.61-2.8z" class="cls-2"/><path d="M82.14 66.33a7.07 7.07 0 003.42.52 4.69 4.69 0 003-1.55A8 8 0 0090 62" class="cls-2"/><path d="M74.9 57.77a14.72 14.72 0 001.82 6.61 13.36 13.36 0 004.56 5.32 6.89 6.89 0 0010.09-2.23A14.29 14.29 0 0093 63.26a10.17 10.17 0 00.35-2.45 11.11 11.11 0 00-.35-2.62 19.67 19.67 0 00-.75-2.44 12.58 12.58 0 00-5.86-6.49 4.79 4.79 0 00-1.33-.5 5.06 5.06 0 00-1.42 0c-3.79.4-7.09 2.28-8.26 6.06a9.84 9.84 0 00-.48 2.95z" class="cls-2"/><path d="M90.22 52.32a2.64 2.64 0 011.58-.65 1.87 1.87 0 011.17.5 3.39 3.39 0 01.75 1 2.33 2.33 0 01.3 1.18 1.7 1.7 0 01-.57 1.12 2.46 2.46 0 01-1.14.56m-16.68 5.9a2.35 2.35 0 00-.49 1.86 3.9 3.9 0 00.81 1.79 2.61 2.61 0 00.89.8 1.25 1.25 0 001.16 0m4.63 4.06q4.5 11.13 9.12 22.2a1.5 1.5 0 00.64.86 1.39 1.39 0 00.74.06 10.49 10.49 0 004.93-1.88 1 1 0 00.35-.36.91.91 0 000-.53 8.13 8.13 0 00-.71-2 87.77 87.77 0 00-11.1-17.91m5.73 22.58q.55 1.57 1.22 3.1m4.9-5.23c.59 1 0 2.28.43 3.36M84.41 83.53a1.79 1.79 0 00.26 1.38 1.15 1.15 0 001.27.43 1.38 1.38 0 00.7-.72 2.51 2.51 0 00-.07-2.3 1.2 1.2 0 00-.4-.45c-.98-.59-1.63.97-1.76 1.66zm9.03-5.59a8 8 0 004.56-.25 1.2 1.2 0 00.79-.49 1.07 1.07 0 00.1-.38 4.52 4.52 0 00-.72-3 2.5 2.5 0 00-.7-.73 3.34 3.34 0 00-2.5-.15 7.27 7.27 0 01-2.27 0c-1.79-.18-2.25 1.9-1.52 3.23a3.92 3.92 0 002.26 1.77z" class="cls-2"/><path d="M81 60a.82.82 0 001.65 0A.82.82 0 0081 60z" class="cls-3"/><path d="M33.79 66.62a2.62 2.62 0 00-.65-1.93m.02 2.65a6.47 6.47 0 00-2.3-2.47m6.83 1.91a3.9 3.9 0 00.8-1.45m-.41 1.96a3.16 3.16 0 001.77-1.71m-.72 3a1.36 1.36 0 01.29-.69 8 8 0 011.58-1.7M40.93 69l.91-1a1.54 1.54 0 01.78-.53M31.91 75.6a.77.77 0 00-.69.63.89.89 0 00.4.87 1.08 1.08 0 001 .08.81.81 0 00.42-.35c.26-.54-.64-1.26-1.13-1.23zm5.7-1.24a1.57 1.57 0 00-.3-.3 1 1 0 00-1 .14 1.84 1.84 0 00-.89 1 .4.4 0 000 .22.45.45 0 00.15.19 2.74 2.74 0 002.16.62 1.18 1.18 0 00.71-.32c.7-.74-.44-1.13-.83-1.55zm-2.33-2.71a1.12 1.12 0 00-.52-.65 1.29 1.29 0 00-.82-.07 2.84 2.84 0 00-2.13 1.88 1 1 0 00-.06.41 1.12 1.12 0 00.51.69 1.6 1.6 0 00.74.37 1.46 1.46 0 00.93-.28c.86-.55 1.71-1.28 1.35-2.35z" class="cls-6"/><path d="M29.18 75.57a6 6 0 001.06 2.71 3.94 3.94 0 002.41 1.56 6.7 6.7 0 003-.39" class="cls-6"/><path d="M32.37 66.69a12.38 12.38 0 00-4 4.1 11.23 11.23 0 00-2 5.56 6.3 6.3 0 002.29 5.26 6.32 6.32 0 003.57 1.15A12 12 0 0036 82.2a8.55 8.55 0 001.93-.78A9.35 9.35 0 0039.66 80a16.54 16.54 0 001.46-1.57 10.58 10.58 0 002.26-7 4 4 0 00-.2-1.18 4.26 4.26 0 00-.59-1c-1.88-2.59-4.64-4.21-7.89-3.47a8.28 8.28 0 00-2.33.91z" class="cls-6"/><path d="M42.79 75.56a2.22 2.22 0 011.14.88 1.58 1.58 0 01.13 1.06 2.85 2.85 0 01-.44 1 2 2 0 01-.73.71 1.43 1.43 0 01-1.05.06 2.07 2.07 0 01-.89-.59M29.65 69a2 2 0 00-1.56.43 3.28 3.28 0 00-1 1.34 2.19 2.19 0 00-.2 1 1.05 1.05 0 00.48.85m-.98 5.03q-6.21 8-12.34 16a1.26 1.26 0 00-.36.83A1.17 1.17 0 0014 95a8.82 8.82 0 003.44 2.8.82.82 0 00.41.1.77.77 0 00.4-.21 6.83 6.83 0 001.15-1.36 73.83 73.83 0 008.37-15.63M13.7 94.4q-.91 1.06-1.75 2.19M17.83 98c-.46.84-1.64 1-2.27 1.72m2.04-15.27a1.5 1.5 0 00-.9.77 1 1 0 00.22 1.11 1.16 1.16 0 00.82.21 2.11 2.11 0 001.65-1 1 1 0 00.16-.48c.02-.99-1.39-.81-1.95-.61zm7.88 4.23a6.77 6.77 0 002.11 3.24 1 1 0 00.69.37.9.9 0 00.32-.09 3.8 3.8 0 001.88-1.79 2.11 2.11 0 00.24-.82 2.81 2.81 0 00-.94-1.89 6.11 6.11 0 01-.94-1.66c-.63-1.38-2.33-.84-3 .25a3.3 3.3 0 00-.36 2.39z" class="cls-6"/><path d="M33.31 72a.69.69 0 00.69 1.2.69.69 0 00-.69-1.2z" class="cls-3"/><path d="M33.64 38.56a1.57 1.57 0 00-.92-.81m.82 1.37a3.88 3.88 0 00-1.93-.59m4.11-1.05a2.34 2.34 0 000-1m.36 1.15a1.9 1.9 0 00.41-1.42M37 38a.81.81 0 01-.06-.45 4.79 4.79 0 01.3-1.35m.82 1.45l.19-.77a.92.92 0 01.24-.51m-3.13 7.42a.46.46 0 00-.17.54.54.54 0 00.47.33.65.65 0 00.53-.25.48.48 0 00.11-.31c-.01-.37-.69-.47-.94-.31zM38 41.44a.94.94 0 00-.25-.07c-.21 0-.37.18-.47.37a1.1 1.1 0 00-.16.8.24.24 0 00.06.12.27.27 0 00.14.05 1.64 1.64 0 001.31-.32.71.71 0 00.27-.38c.1-.61-.63-.47-.9-.57zm-2.07-.71a.67.67 0 00-.47-.18.77.77 0 00-.44.21 1.7 1.7 0 00-.54 1.61.58.58 0 00.09.23.67.67 0 00.47.2 1 1 0 00.49 0 .87.87 0 00.4-.43c.28-.56.51-1.2 0-1.64z" class="cls-7"/><path d="M33.94 44.59a3.56 3.56 0 001.36 1.09 2.36 2.36 0 001.72.09 4 4 0 001.44-1.1" class="cls-7"/><path d="M32.94 39a7.42 7.42 0 00-.87 3.34 6.73 6.73 0 00.65 3.47 3.48 3.48 0 005 1.57A7.2 7.2 0 0039.46 46a5.13 5.13 0 00.77-1 5.6 5.6 0 00.48-1.25 9.92 9.92 0 00.29-1.24 6.34 6.34 0 00-.92-4.31 2.42 2.42 0 00-.46-.55 2.55 2.55 0 00-.62-.36 4.52 4.52 0 00-5.13.57 5 5 0 00-.93 1.14z" class="cls-7"/><path d="M41 40.51a1.33 1.33 0 01.85.12.94.94 0 01.38.51 1.71 1.71 0 01.07.64 1.18 1.18 0 01-.17.59.86.86 0 01-.53.34 1.24 1.24 0 01-.64 0M32.2 41a1.19 1.19 0 00-.68.69 2 2 0 00-.1 1 1.31 1.31 0 00.19.57.63.63 0 00.5.29m1 2.95q-.84 6-1.61 12a.76.76 0 00.06.54.7.7 0 00.31.21 5.29 5.29 0 002.63.42.49.49 0 00.24-.07.46.46 0 00.14-.23 4.1 4.1 0 00.19-1 44.25 44.25 0 00-.34-10.62M31.55 59q-.15.83-.25 1.66m3.46-1.05c0 .58-.56 1-.66 1.57m-3.51-8.51a.9.9 0 00-.24.67.58.58 0 00.45.51.69.69 0 00.49-.14 1.27 1.27 0 00.55-1 .6.6 0 00-.06-.29c-.28-.54-.96-.02-1.19.25zm5.35-.17a4.05 4.05 0 002.07 1 .61.61 0 00.47 0 .54.54 0 00.14-.14 2.28 2.28 0 00.44-1.49 1.26 1.26 0 00-.12-.49 1.68 1.68 0 00-1.05-.7 3.66 3.66 0 01-1-.58c-.74-.53-1.46.26-1.48 1a2 2 0 00.53 1.4z" class="cls-7"/><path d="M35 41.52a.42.42 0 00.72.42.42.42 0 00-.72-.42z" class="cls-3"/><path d="M18.32 58.21a1.7 1.7 0 00-.6-1.18m.28 1.7a4.21 4.21 0 00-1.71-1.37m4.56.64a2.54 2.54 0 00.38-1m-.08 1.24a2.06 2.06 0 001-1.27m-.2 2.03a.88.88 0 01.12-.47 5.2 5.2 0 01.84-1.24m.23 1.77l.5-.7a1 1 0 01.45-.41M18 64.17a.5.5 0 00-.38.47.58.58 0 00.34.52.7.7 0 00.63 0 .52.52 0 00.24-.26c.1-.42-.55-.79-.83-.73zm3.52-1.34a1 1 0 00-.22-.17.63.63 0 00-.63.18 1.2 1.2 0 00-.48.75.26.26 0 000 .14.29.29 0 00.11.11 1.78 1.78 0 001.45.2.77.77 0 00.43-.27c.4-.56-.39-.7-.66-.94zm-1.76-1.52a.73.73 0 00-.4-.37.84.84 0 00-.53 0 1.84 1.84 0 00-1.19 1.41.63.63 0 000 .27.73.73 0 00.36.38 1 1 0 00.51.17 1 1 0 00.57-.27c.54-.39 1.02-.9.68-1.59z" class="cls-8"/><path d="M16.21 64.41a3.87 3.87 0 00.94 1.64 2.56 2.56 0 001.7.77 4.36 4.36 0 001.89-.53" class="cls-8"/><path d="M17.42 58.4a8.05 8.05 0 00-2.22 3 7.31 7.31 0 00-.73 3.76 4.1 4.1 0 002 3.17 4.11 4.11 0 002.41.41 7.82 7.82 0 002.34-.74 5.56 5.56 0 001.17-.68 6.08 6.08 0 001-1.07 10.76 10.76 0 00.79-1.15 6.88 6.88 0 00.82-4.68 2.62 2.62 0 00-.24-.74 2.77 2.77 0 00-.48-.61 4.91 4.91 0 00-5.41-1.48 5.38 5.38 0 00-1.45.81z" class="cls-8"/><path d="M25 63.11a1.44 1.44 0 01.81.46 1 1 0 01.18.67 1.85 1.85 0 01-.19.68 1.28 1.28 0 01-.4.53.93.93 0 01-.67.14 1.35 1.35 0 01-.63-.3m-8.22-5.17a1.29 1.29 0 00-1 .42 2.13 2.13 0 00-.49 1 1.43 1.43 0 000 .65.68.68 0 00.39.5M14.61 66q-3.24 5.71-6.43 11.45A.82.82 0 008 78a.76.76 0 00.22.34 5.74 5.74 0 002.48 1.47.53.53 0 00.27 0 .5.5 0 00.24-.17 4.44 4.44 0 00.61-1 48 48 0 003.91-10.85M8 78q-.49.77-.92 1.57m3.92.32c-.22.59-1 .79-1.3 1.32m-.1-9.99a1 1 0 00-.5.58.63.63 0 00.25.69.75.75 0 00.55.06 1.37 1.37 0 001-.81.65.65 0 00.06-.32c-.13-.63-1.02-.42-1.36-.2zm5.46 1.97a4.4 4.4 0 001.66 1.89.66.66 0 00.48.17.59.59 0 00.2-.09 2.47 2.47 0 001-1.33 1.37 1.37 0 00.08-.55 1.83 1.83 0 00-.78-1.12 4 4 0 01-.76-1c-.53-.83-1.58-.32-1.9.44a2.15 2.15 0 00.02 1.59z" class="cls-8"/><path d="M18.53 61.75a.45.45 0 00.56.71.45.45 0 00-.56-.71z" class="cls-3"/><path d="M67.94 47.22a1.54 1.54 0 00-.86-.84m.72 1.39a3.81 3.81 0 00-1.87-.68m4.07-.82a2.3 2.3 0 000-1m.38 1.16a1.87 1.87 0 00.48-1.37m.41 1.77a.8.8 0 010-.44 4.72 4.72 0 01.37-1.31m.68 1.48l.22-.75a.91.91 0 01.27-.49m-3.46 7.13a.45.45 0 00-.19.52.53.53 0 00.44.35.64.64 0 00.53-.22.48.48 0 00.13-.29c0-.37-.66-.51-.91-.36zM72 50.28a.93.93 0 00-.24-.08c-.21 0-.38.16-.49.34a1.08 1.08 0 00-.2.78.24.24 0 00.05.12.26.26 0 00.13.06 1.62 1.62 0 001.3-.25.7.7 0 00.29-.36c.16-.6-.52-.5-.84-.61zm-1.93-.81a.66.66 0 00-.45-.21.76.76 0 00-.45.18 1.67 1.67 0 00-.62 1.56.57.57 0 00.08.23.66.66 0 00.45.22.94.94 0 00.49 0 .86.86 0 00.41-.4c.31-.5.56-1.11.09-1.58z" class="cls-9"/><path d="M67.91 53.16a3.51 3.51 0 001.28 1.14 2.32 2.32 0 001.68.18 4 4 0 001.47-1" class="cls-9"/><path d="M67.22 47.64a7.3 7.3 0 00-1 3.24 6.62 6.62 0 00.46 3.45 3.42 3.42 0 004.8 1.81 7.09 7.09 0 001.82-1.3 5 5 0 00.81-.92 5.51 5.51 0 00.54-1.2 9.75 9.75 0 00.35-1.23 6.24 6.24 0 00-.68-4.28 2.38 2.38 0 00-.42-.57 2.51 2.51 0 00-.59-.39 4.45 4.45 0 00-5.07.28 4.88 4.88 0 00-1.02 1.11z" class="cls-9"/><path d="M75.05 49.52a1.31 1.31 0 01.83.16.93.93 0 01.35.52 1.68 1.68 0 010 .64 1.16 1.16 0 01-.19.57.84.84 0 01-.54.31 1.22 1.22 0 01-.62-.08m-8.49-2.07a1.17 1.17 0 00-.71.64 1.93 1.93 0 00-.15 1 1.29 1.29 0 00.15.57.62.62 0 00.48.32M67 55q-1.14 5.84-2.22 11.69a.74.74 0 000 .53.69.69 0 00.29.23 5.2 5.2 0 002.56.55.48.48 0 00.24-.06.45.45 0 00.15-.21 4 4 0 00.24-1 43.52 43.52 0 00.23-10.45M64.8 67.19q-.2.8-.33 1.62m3.45-.81c0 .57-.6 1-.73 1.51m-3-8.59a.89.89 0 00-.27.64.57.57 0 00.41.52.68.68 0 00.49-.11 1.25 1.25 0 00.59-1 .59.59 0 000-.29c-.29-.48-.98-.01-1.22.24zm5.27.08a4 4 0 002 1.14.6.6 0 00.46 0 .53.53 0 00.14-.13 2.24 2.24 0 00.51-1.44 1.24 1.24 0 00-.09-.49 1.66 1.66 0 00-1-.74 3.6 3.6 0 01-.94-.62c-.7-.56-1.45.18-1.51.93a2 2 0 00.43 1.35z" class="cls-9"/><path d="M69.13 50.2a.41.41 0 00.68.45.41.41 0 00-.68-.45z" class="cls-3"/><path d="M66.21 37.52a1.54 1.54 0 00.58-1m-1.14 1.01a3.81 3.81 0 00.17-2m1.87 3.76a2.3 2.3 0 001-.22m-1.07.59a1.87 1.87 0 001.45.1m-1.59.87a.8.8 0 01.42-.15 4.72 4.72 0 011.36 0M68 41.57h.78a.91.91 0 01.54.13m-7.77-1.44a.45.45 0 00-.55 0 .53.53 0 00-.22.52.64.64 0 00.35.45.48.48 0 00.32 0c.35-.09.31-.76.1-.97zm2.8 2a.93.93 0 000-.25c0-.2-.25-.32-.45-.38a1.08 1.08 0 00-.8 0 .24.24 0 00-.1.08.26.26 0 000 .14 1.62 1.62 0 00.59 1.19.7.7 0 00.42.18c.6.03.31-.64.34-.96zm.26-2.09a.66.66 0 00.08-.49.76.76 0 00-.29-.38 1.67 1.67 0 00-1.67-.18.57.57 0 00-.2.14.66.66 0 00-.1.49.94.94 0 00.13.47.86.86 0 00.49.29c.58.16 1.24.24 1.56-.34z" class="cls-9"/><path d="M60.48 39.06a3.51 3.51 0 00-.76 1.53 2.32 2.32 0 00.28 1.67 4 4 0 001.36 1.15" class="cls-9"/><path d="M65.62 36.93a7.3 7.3 0 00-3.4-.14A6.62 6.62 0 0059 38.15a3.42 3.42 0 00-.47 5.1 7.09 7.09 0 001.74 1.41 5 5 0 001.1.53 5.51 5.51 0 001.3.2 9.75 9.75 0 001.26 0 6.24 6.24 0 004-1.79 2.38 2.38 0 00.44-.55 2.51 2.51 0 00.22-.67 4.45 4.45 0 00-1.62-4.82 4.88 4.88 0 00-1.35-.63z" class="cls-9"/><path d="M65.88 45a1.31 1.31 0 01.07.85.93.93 0 01-.41.48 1.68 1.68 0 01-.61.2 1.16 1.16 0 01-.6 0 .84.84 0 01-.44-.44 1.22 1.22 0 01-.09-.62m-.25-8.82a1.17 1.17 0 00-.81-.51 1.93 1.93 0 00-1 .11 1.29 1.29 0 00-.51.3.62.62 0 00-.18.55m-2.58 1.57q-5.93.45-11.86 1a.74.74 0 00-.5.17.69.69 0 00-.14.34 5.2 5.2 0 00.15 2.61.48.48 0 00.12.22.45.45 0 00.25.09 4 4 0 001 0 43.52 43.52 0 0010.14-2.55m-11.5-.77q-.83 0-1.65.11M46.21 43c-.55.13-1.08-.32-1.65-.31M52 37.53a.89.89 0 00-.69-.09.57.57 0 00-.4.54.68.68 0 00.23.44 1.25 1.25 0 001.1.31.59.59 0 00.27-.12c.49-.37-.18-.91-.51-1.08zm1.3 5.11a4 4 0 00-.58 2.21.6.6 0 00.11.45.53.53 0 00.17.1 2.24 2.24 0 001.52.11 1.24 1.24 0 00.45-.22 1.66 1.66 0 00.45-1.16 3.6 3.6 0 01.35-1.07c.35-.82-.56-1.35-1.3-1.21a2 2 0 00-1.17.79z" class="cls-9"/><path d="M63.66 39.46a.41.41 0 00-.25.78.41.41 0 00.25-.78z" class="cls-3"/><path d="M45.94 77.22a1.54 1.54 0 00-.86-.84m.72 1.39a3.81 3.81 0 00-1.87-.68m4.07-.82a2.3 2.3 0 000-1m.38 1.16a1.87 1.87 0 00.48-1.37m.41 1.77a.8.8 0 010-.44 4.72 4.72 0 01.37-1.31m.68 1.48l.22-.75a.91.91 0 01.27-.49m-3.46 7.13a.45.45 0 00-.19.52.53.53 0 00.44.35.64.64 0 00.53-.22.48.48 0 00.13-.29c0-.37-.66-.51-.91-.36zM50 80.28a.93.93 0 00-.24-.08c-.21 0-.38.16-.49.34a1.08 1.08 0 00-.2.78.24.24 0 00.05.12.26.26 0 00.13.06 1.62 1.62 0 001.3-.25.7.7 0 00.29-.36c.16-.6-.52-.5-.84-.61zm-1.93-.81a.66.66 0 00-.45-.21.76.76 0 00-.45.18 1.67 1.67 0 00-.62 1.56.57.57 0 00.08.23.66.66 0 00.45.22.94.94 0 00.49 0 .86.86 0 00.41-.4c.31-.5.56-1.11.09-1.58z" class="cls-9"/><path d="M45.91 83.16a3.51 3.51 0 001.28 1.14 2.32 2.32 0 001.68.18 4 4 0 001.47-1" class="cls-9"/><path d="M45.22 77.64a7.3 7.3 0 00-1 3.24 6.62 6.62 0 00.46 3.45 3.42 3.42 0 004.8 1.81 7.09 7.09 0 001.82-1.3 5 5 0 00.81-.92 5.51 5.51 0 00.54-1.2 9.75 9.75 0 00.35-1.23 6.24 6.24 0 00-.68-4.28 2.38 2.38 0 00-.42-.57 2.51 2.51 0 00-.59-.39 4.45 4.45 0 00-5.07.28 4.88 4.88 0 00-1.02 1.11z" class="cls-9"/><path d="M53.05 79.52a1.31 1.31 0 01.83.16.93.93 0 01.35.52 1.68 1.68 0 010 .64 1.16 1.16 0 01-.19.57.84.84 0 01-.54.31 1.22 1.22 0 01-.62-.08m-8.49-2.07a1.17 1.17 0 00-.71.64 1.93 1.93 0 00-.15 1 1.29 1.29 0 00.15.57.62.62 0 00.48.32M45 85q-1.14 5.84-2.22 11.69a.74.74 0 000 .53.69.69 0 00.29.23 5.2 5.2 0 002.56.55.48.48 0 00.24-.06.45.45 0 00.15-.21 4 4 0 00.24-1 43.52 43.52 0 00.23-10.45M42.8 97.19q-.2.8-.33 1.62m3.45-.81c0 .57-.6 1-.73 1.51m-3-8.59a.89.89 0 00-.27.64.57.57 0 00.41.52.68.68 0 00.49-.11 1.25 1.25 0 00.59-1 .59.59 0 000-.29c-.29-.48-.98-.01-1.22.24zm5.27.08a4 4 0 002 1.14.6.6 0 00.46 0 .53.53 0 00.14-.13 2.24 2.24 0 00.51-1.44 1.24 1.24 0 00-.09-.49 1.66 1.66 0 00-1-.74 3.6 3.6 0 01-.94-.62c-.7-.56-1.45.18-1.51.93a2 2 0 00.43 1.35z" class="cls-9"/><path d="M47.13 80.2a.41.41 0 00.68.45.41.41 0 00-.68-.45z" class="cls-3"/></svg>
