<svg xmlns="http://www.w3.org/2000/svg" viewBox="0 0 80.4 177.43"><defs><style>.cls-2{fill:#a0a0a0}.cls-3{fill:none;stroke:#fff;stroke-miterlimit:10}</style></defs><path fill="#9f9f9f" d="M7 38.13L9.35 24.4c-.44-.1-1-.23-1.48-.32a16.78 16.78 0 00-5.16-.55l-1.54.19c-.63.09-1.07-.16-1.17-.66A1 1 0 01.86 22a14.21 14.21 0 015.48 0c1.18.21 2.34.51 3.51.73a.62.62 0 00.52-.29c.35-.81.65-1.63.94-2.46a.59.59 0 00-.17-.49 8.69 8.69 0 00-5-2.58c-.66-.06-1-.47-.88-1s.56-.74 1.17-.67a8.77 8.77 0 014.87 2.12c.25.22.52.42.74.59.68-1.36 1.3-2.73 2-4a10.86 10.86 0 011.54-2.1 20.49 20.49 0 017-5c1.1-.47 2.16-1 3.28-1.56-.06-.2-.18-.5-.25-.81a.76.76 0 01.5-1 .79.79 0 011 .36 1.82 1.82 0 01.16.32c.37.85.37.84 1.27.65a3.68 3.68 0 01.58-.06h.76l-.43-2.74c0-.25-.15-.5-.19-.75a.82.82 0 01.6-1 .77.77 0 011 .63c.22.87.39 1.75.56 2.63a8.18 8.18 0 01.07.9c.82-.13 1.6-.24 2.37-.39.11 0 .23-.26.25-.41.11-.85.2-1.7.29-2.56V.7a.81.81 0 01.84-.7.75.75 0 01.8.79c0 .76-.08 1.51-.14 2.27 0 .25-.06.5-.09.75l6.75.32c.31-.83.63-1.71 1-2.57a4.05 4.05 0 01.53-.93.79.79 0 011.14-.23c.44.3.41.74.21 1.18-.32.73-.64 1.46-1 2.2a2.27 2.27 0 00-.1.36 36.81 36.81 0 014.15 1 28.63 28.63 0 014 1.89 43.44 43.44 0 014.48 2.65 21.94 21.94 0 013.06 2.76 34.28 34.28 0 017.45 11.86l.19.47a22.8 22.8 0 013.11-1.08 6.91 6.91 0 015.46 1.45 10.34 10.34 0 013.65 11.38 6.56 6.56 0 01-9 4l-.62-.25c0 .71-.08 1.38-.11 2a49 49 0 01-10.12 28 39.25 39.25 0 01-4.83 5.24A28.79 28.79 0 0147.47 81a20.92 20.92 0 01-5.93 1.58c-2.79.31-5.6.52-8.38.77.3.75.66 1.63 1 2.52 1.39 3.52 2.54 7.13 3.59 10.77 2.28 7.9 4.22 15.9 5.76 24a541.37 541.37 0 013.19 18.28c.66 4.28 1.1 8.6 1.49 12.91.29 3.2.29 6.43.51 9.64a21.2 21.2 0 01-.41 6.24c-.51 2.22-1.13 4.41-1.68 6.62-.15.59-.23 1.21-.32 1.81-.06.44-.3.57-.71.49-.87-.16-1.2-.64-1-1.49.41-1.65.87-3.28 1.24-4.94.3-1.37.49-2.76.73-4.12a44.79 44.79 0 01-21 .59v.6q0 4.35.06 8.7v.18c0 .86-.31 1.31-.9 1.3s-.87-.44-.88-1.26c0-2.6-.06-5.2-.15-7.8-.21-5.89-.45-11.79-.69-17.68l-.51-13.13-.8-20.2-.52-13.19Q20.8 94.11 20.4 84c-.08-2.06-.15-4.12-.26-6.17a1.09 1.09 0 00-.37-.72A21.15 21.15 0 0113.15 68c-.63-1.55-1.5-3-2.15-4.54-.74-1.76-1.35-3.62-2-5.46-.06-.16-.34-.38-.48-.35a3.15 3.15 0 01-2.91-1.08 9.44 9.44 0 01-2.31-4.35 18.07 18.07 0 01.05-10.28 9.28 9.28 0 011-2.14A3.3 3.3 0 017 38.13zm4.73-13.06c-.5 1.72-1.06 3.35-1.41 5a41.69 41.69 0 00-.47 4.22c-.11 1.05-.28 2.1-.32 3.16-.07 1.65 0 3.32-.1 5a35.93 35.93 0 00.47 10 55.11 55.11 0 005.57 15.45 32.21 32.21 0 005.14 6.51A20.59 20.59 0 0028 79.53a16.76 16.76 0 002.16.87 33.83 33.83 0 0010.84.46 17.9 17.9 0 008-2.61 36.39 36.39 0 003.7-2.83 34.59 34.59 0 007.57-8.21 47.65 47.65 0 007.7-34.37A36.91 36.91 0 0062 17.52a27.73 27.73 0 00-9.29-8.79A19.09 19.09 0 0043.92 6c.05.75.06 1.52.17 2.27.07.49.05.88-.43 1.11a.8.8 0 01-1.12-.51A9.17 9.17 0 0142.26 7a9.31 9.31 0 01.06-1.21c-2.28.2-4.5-.42-6.74.09a9.43 9.43 0 00.42 4c.42.92.77 1.87 1.17 2.81a.89.89 0 01-.2 1.18.88.88 0 01-1.22-.23 3.31 3.31 0 01-.36-.55 10.2 10.2 0 01-1-1.79 19.72 19.72 0 01-.72-3.18A10.91 10.91 0 0133.81 6c-.76.12-1.43.21-2.09.33a.48.48 0 00-.32.27c-.18.63-.29 1.29-.49 1.91a75.67 75.67 0 01-1.24 3.68.76.76 0 01-1 .48.77.77 0 01-.56-1 9.57 9.57 0 01.3-1l1.24-4-1.57.33a5 5 0 01.14 1 29.13 29.13 0 01-.34 3.37.82.82 0 01-1.45.46 1.56 1.56 0 01-.12-1.06 6.61 6.61 0 00.1-3.26 18.27 18.27 0 00-4.12 1.76A20.49 20.49 0 0015.66 16c-.56.82-1 1.73-1.52 2.58s-.6.92.06 1.79c.41.54.43 1.06 0 1.4s-.82.26-1.35-.27h-.16L12 23.34c.29.11.5.2.73.27.44.13.89.22 1.33.36a.8.8 0 01.65.94.79.79 0 01-.91.68 3.36 3.36 0 01-.64-.12zM22 78.38a1.14 1.14 0 000 .22l.49 12.46.68 16.9.51 13.3.69 17.38.41 10.19.55 14.62a1.24 1.24 0 001 1.4 15.23 15.23 0 004.69.89 48.43 48.43 0 009.28-.25 26.18 26.18 0 006.13-1.33.74.74 0 00.56-.77 76.14 76.14 0 00-.43-11.68c-.53-5.1-1.16-10.2-1.91-15.28a323.47 323.47 0 00-4.76-24.87 225.49 225.49 0 00-6.22-22.35c-.64-1.87-1.44-3.68-2.12-5.53a2.38 2.38 0 00-1.7-1.48 21.88 21.88 0 01-2.83-1.1c-1.13-.55-2.2-1.21-3.3-1.82zm48.28-40c.31.13.69.25 1 .42A4.77 4.77 0 0078 36.49a6.8 6.8 0 00.58-4.09 8.06 8.06 0 00-4.75-6.6 4.54 4.54 0 00-4.91.55c-.13.1-.29.26-.29.4A6 6 0 0068.7 28c.32 1.63.73 3.23 1 4.87.3 1.84.38 3.68.57 5.48zm-63.2 1.45a3 3 0 00-.81.53 6.47 6.47 0 00-1 1.66 15.61 15.61 0 00.58 11.83A6.09 6.09 0 007 55.47a1.13 1.13 0 001.42.32 76.73 76.73 0 01-1.34-15.96z"/><path d="M40.72 102.74A8.17 8.17 0 0143 96.68a7.11 7.11 0 017.64-1.45 23.13 23.13 0 007.63 2 10.85 10.85 0 016.48 2.45 9.07 9.07 0 012.21 3.51 15.06 15.06 0 011.39 6.5 13.64 13.64 0 01-.24 3.44c-.55 2-1.28 4.08-3.16 5.34a4.35 4.35 0 01-4.24.53 24.42 24.42 0 00-4.48-1 26.3 26.3 0 01-7.67-2.49 14.53 14.53 0 01-4.33-2.84 12.69 12.69 0 01-2.47-4.19 19.34 19.34 0 01-1.04-5.74zm25.7 5.2c-.15-.7-.29-1.4-.47-2.09a14 14 0 00-1.88-4c-.52-.82-1.45-1.09-2.18-1.63a3.27 3.27 0 00-1.76-.61c-.5 0-1-.05-1.49-.13a24.45 24.45 0 01-3.48-.58c-2.25-.68-4.45-1.51-6.68-2.25a3.19 3.19 0 00-3.37.75 9.38 9.38 0 00-2.34 3.36 4.75 4.75 0 00-.4 2 21.73 21.73 0 00.57 3.66 7.07 7.07 0 002.15 4.05c.6.5 1.14 1.06 1.74 1.56a7 7 0 001.68 1.23c1.61.64 3.25 1.2 4.91 1.7 2.44.74 4.94 1.29 7.35 2.12a3.32 3.32 0 003.19-.43c1.4-.93 1.74-2.42 2.1-3.89a14.43 14.43 0 00.36-4.81zM19.57 121.53c0 3.81-1.59 6.08-4.45 7.42a4.36 4.36 0 01-6-2.64 6.22 6.22 0 01.14-4.45 13 13 0 012.74-4.28 7.43 7.43 0 012.8-1.8c1.35-.52 3.06.4 3.84 1.93a8.07 8.07 0 01.93 3.82zm-1.81 0a3.48 3.48 0 00-.6-2.29 1.07 1.07 0 01-.13-.51 1.47 1.47 0 00-2.09-1.15 7.62 7.62 0 00-3.39 3.57 6.08 6.08 0 00-.93 3.53c.16 2.12 1.91 3.53 3.92 2.55a5.46 5.46 0 003.22-5.65z" class="cls-2"/><path d="M11.69 25.07l1.45.4a3.36 3.36 0 00.64.12.79.79 0 00.91-.68.8.8 0 00-.65-.94c-.44-.14-.89-.23-1.33-.36-.22-.07-.44-.16-.73-.27l.73-1.9h.16c.53.53.95.62 1.35.27s.37-.85 0-1.4c-.66-.87-.64-.86-.06-1.79s1-1.75 1.52-2.58a20.49 20.49 0 016.62-6.65 18.27 18.27 0 014.1-1.73 6.61 6.61 0 01-.1 3.26 1.56 1.56 0 00.12 1.06.82.82 0 001.45-.46A29.13 29.13 0 0028.22 8a5 5 0 00-.14-1l1.61-.35-1.24 4a9.57 9.57 0 00-.3 1 .77.77 0 00.56 1 .76.76 0 001-.48 79.5 79.5 0 001.24-3.68c.2-.63.31-1.28.49-1.91a.48.48 0 01.32-.27c.66-.12 1.33-.22 2.09-.33a10.91 10.91 0 00-.1 2.07 19.72 19.72 0 00.72 3.18 10.2 10.2 0 001 1.79 3.31 3.31 0 00.36.55.88.88 0 001.22.23.89.89 0 00.2-1.18c-.4-.93-.75-1.88-1.17-2.81a9.43 9.43 0 01-.42-4c2.24-.51 4.46.11 6.74-.09A9.31 9.31 0 0042.26 7a9.17 9.17 0 00.28 1.87.8.8 0 001.12.51c.49-.23.5-.62.43-1.11C44 7.48 44 6.71 43.92 6a19.09 19.09 0 018.8 2.77A27.73 27.73 0 0162 17.52a36.91 36.91 0 015.88 15.32 47.65 47.65 0 01-7.7 34.37 34.59 34.59 0 01-7.57 8.21 36.39 36.39 0 01-3.7 2.83 17.9 17.9 0 01-8 2.61 33.83 33.83 0 01-10.78-.46 16.76 16.76 0 01-2.13-.87 20.59 20.59 0 01-7.46-5.18 32.21 32.21 0 01-5.14-6.51 55.11 55.11 0 01-5.55-15.45 35.93 35.93 0 01-.47-10c.15-1.64 0-3.31.1-5 0-1.05.21-2.1.32-3.16a41.69 41.69 0 01.47-4.22c.36-1.6.92-3.22 1.42-4.94zm10.82 17.11c.22 1.09.42 2.5.81 3.85a3.71 3.71 0 003.46 2.85 5.83 5.83 0 01.7.12 5.7 5.7 0 005.71-1.88 13 13 0 002-4.25c.34-1 .61-2.11.85-3.18.53-2.43.61-4.76-1.51-6.61A6.31 6.31 0 0031 31.29a6 6 0 00-4.13 1.07 8.4 8.4 0 00-4 6c-.12 1.14-.21 2.32-.36 3.82zm15.74 26.75c2-.39 4.05-.72 6.07-1.22a16.3 16.3 0 004.92-2.65 15.1 15.1 0 003.85-3.63 18.22 18.22 0 002.34-4.64c.16-.43.13-.81-.35-1s-.7.13-.89.49c0 .05 0 .11-.07.16-.6 1.11-1.13 2.26-1.81 3.31a6.75 6.75 0 01-1.81 2c-2.36 1.52-4.62 3.2-7.39 4a16.88 16.88 0 01-6.3.79 15.77 15.77 0 01-5.39-1 30.71 30.71 0 01-4-2 31 31 0 01-3.23-2.76 2.81 2.81 0 00-.74-.6 1 1 0 00-.84.06c-.16.16-.13.57-.1.86a.89.89 0 00.3.44c1.28 1.29 2.55 2.59 3.87 3.85a8.28 8.28 0 004 2.24c2.43.62 4.95.9 7.57 1.3zm2.46-27.78a6.66 6.66 0 000 .72A5 5 0 0042 45.13c1.8 1.73 5 1.16 6.33.25 1.12-.76 2.15-1.67 3.3-2.37a4.69 4.69 0 001.92-1.9 5.9 5.9 0 00.18-5.58c-.73-1.53-2.17-2.42-3.87-1.35a3.28 3.28 0 01-3.16.17 4 4 0 00-4.46 1.59 9.66 9.66 0 00-1.53 5.21zm-10 16a3.29 3.29 0 002.82 3.56c1.6.39 3-.27 4.38-.79a2.07 2.07 0 00.86-.71 4.45 4.45 0 00.52-4.54 2.36 2.36 0 00-2-1.53l-3.05-.34a1.55 1.55 0 00-.54 0 3.35 3.35 0 00-2.54 2.2 17.32 17.32 0 00-.44 2.18zM22 78.38l1.62.91c1.1.61 2.17 1.27 3.3 1.82a21.88 21.88 0 002.83 1.1 2.38 2.38 0 011.7 1.48c.68 1.85 1.48 3.67 2.12 5.53a225.49 225.49 0 016.22 22.35 318.74 318.74 0 016.67 40.15 76.14 76.14 0 01.43 11.68.74.74 0 01-.56.77 26.18 26.18 0 01-6.13 1.33 48.43 48.43 0 01-9.28.25 15.23 15.23 0 01-4.69-.89 1.24 1.24 0 01-1-1.4q-.26-7.31-.55-14.62l-.41-10.19q-.27-8.65-.63-17.39l-.51-13.3-.68-16.9-.49-12.46a1.14 1.14 0 01.04-.22zM70.27 38.35c-.19-1.8-.32-3.63-.59-5.44-.25-1.63-.66-3.24-1-4.87a6 6 0 01-.09-1.28c0-.14.16-.3.29-.4a4.54 4.54 0 014.91-.55 8.06 8.06 0 014.75 6.6 6.8 6.8 0 01-.54 4.08 4.77 4.77 0 01-6.67 2.27c-.33-.17-.75-.29-1.06-.41zM7.08 39.83a76.73 76.73 0 001.36 16A1.13 1.13 0 017 55.47a6.09 6.09 0 01-1.2-1.62A15.61 15.61 0 015.24 42a6.47 6.47 0 011-1.66 3 3 0 01.84-.51zM66.42 107.95a14.43 14.43 0 01-.35 4.84c-.37 1.47-.7 3-2.1 3.89a3.32 3.32 0 01-3.19.43c-2.41-.83-4.91-1.39-7.35-2.12a59.26 59.26 0 01-4.91-1.7 7 7 0 01-1.69-1.29c-.6-.5-1.14-1.06-1.74-1.56a7.07 7.07 0 01-2.15-4.05 21.73 21.73 0 01-.57-3.66 4.75 4.75 0 01.4-2 9.38 9.38 0 012.34-3.36 3.19 3.19 0 013.37-.75c2.23.75 4.43 1.58 6.68 2.25a24.45 24.45 0 003.48.58c.49.07 1 .08 1.49.13a3.27 3.27 0 011.76.61c.73.54 1.66.81 2.18 1.63a14 14 0 011.88 4c.18.73.32 1.43.47 2.13zM17.76 121.58a5.46 5.46 0 01-3.23 5.69c-2 1-3.77-.43-3.92-2.55a6.08 6.08 0 01.93-3.53 7.62 7.62 0 013.39-3.57 1.47 1.47 0 012.07 1.15 1.07 1.07 0 00.13.51 3.48 3.48 0 01.63 2.3z" class="cls-3"/><path d="M22.51 42.18c.15-1.5.24-2.68.4-3.84a8.4 8.4 0 014-6A6 6 0 0131 31.29a6.31 6.31 0 013.51 1.78c2.12 1.85 2 4.18 1.51 6.61a31.7 31.7 0 01-.85 3.18 13 13 0 01-2 4.25A5.7 5.7 0 0127.49 49a5.83 5.83 0 00-.7-.12A3.71 3.71 0 0123.32 46c-.39-1.32-.59-2.73-.81-3.82zm12-4.81A4 4 0 0032.87 34a3.34 3.34 0 00-3.44-.7 8.08 8.08 0 00-1.63.82 6.09 6.09 0 00-2.57 3.08 13.34 13.34 0 000 8.65 1.73 1.73 0 001.5 1.21 5.22 5.22 0 011.06.16 4 4 0 004-1.51 16.14 16.14 0 002-5.14c.27-1.07.51-2.14.76-3.2zM38.25 68.93c-2.62-.4-5.14-.68-7.61-1.19a8.28 8.28 0 01-4-2.24c-1.32-1.25-2.58-2.56-3.87-3.85a.89.89 0 01-.3-.44c0-.29-.06-.69.1-.86a1 1 0 01.84-.06 2.81 2.81 0 01.74.6 31 31 0 003.23 2.76 30.71 30.71 0 004 2 15.77 15.77 0 005.39 1 16.88 16.88 0 006.3-.79c2.77-.82 5-2.5 7.39-4a6.75 6.75 0 001.81-2c.68-1.05 1.22-2.2 1.81-3.31 0-.05 0-.11.07-.16.19-.36.44-.66.89-.49s.51.57.35 1a18.22 18.22 0 01-2.34 4.64 15.1 15.1 0 01-3.85 3.63 16.3 16.3 0 01-4.92 2.65c-1.98.39-4.04.72-6.03 1.11zM40.71 41.15a9.66 9.66 0 011.52-5.21 4 4 0 014.46-1.59 3.28 3.28 0 003.16-.17c1.7-1.07 3.14-.13 3.91 1.35a5.9 5.9 0 01-.18 5.58A4.69 4.69 0 0151.66 43c-1.16.7-2.18 1.61-3.3 2.37-1.34.91-4.52 1.48-6.33-.25a5 5 0 01-1.31-3.26 6.66 6.66 0 01-.01-.71zm11.91-3a10.61 10.61 0 00-.37-1.73c-.33-.85-.88-1.09-1.62-.69a5 5 0 01-4.48.27 2.09 2.09 0 00-2.38.8 7.33 7.33 0 00-1.23 5.29 2.24 2.24 0 001.08 2 3.94 3.94 0 004-.39c1.3-.81 2.52-1.74 3.78-2.62a1 1 0 00.25-.25 4.64 4.64 0 00.97-2.64z" class="cls-2"/><path d="M30.72 57.18a17.32 17.32 0 01.44-2.18 3.35 3.35 0 012.59-2.17 1.55 1.55 0 01.54 0l3.05.34a2.36 2.36 0 012 1.53 4.45 4.45 0 01-.52 4.54 2.07 2.07 0 01-.86.71c-1.41.52-2.78 1.18-4.38.79a3.29 3.29 0 01-2.86-3.56zm1.85-.34c0 1 0 1.69.78 2a3.27 3.27 0 002.52 0 3 3 0 01.73-.25 1.26 1.26 0 001.12-1c.49-2.1 0-2.84-2-2.7a2.19 2.19 0 01-.88-.1 1.43 1.43 0 00-1.9.73 7.4 7.4 0 00-.36 1.33z" class="cls-2"/><path d="M34.55 37.37l-.73 3.2a16.14 16.14 0 01-2 5.14 4 4 0 01-4 1.51 5.22 5.22 0 00-1.06-.16 1.73 1.73 0 01-1.5-1.21 13.34 13.34 0 010-8.65 6.09 6.09 0 012.57-3.08 8.08 8.08 0 011.63-.82 3.34 3.34 0 013.44.7 4 4 0 011.65 3.37zM52.62 38.19a4.64 4.64 0 01-.95 2.64 1 1 0 01-.25.25c-1.25.88-2.48 1.81-3.78 2.62a3.94 3.94 0 01-4 .39 2.24 2.24 0 01-1.08-2 7.33 7.33 0 011.23-5.29 2.09 2.09 0 012.38-.8 5 5 0 004.48-.27c.73-.4 1.29-.16 1.62.69a10.61 10.61 0 01.35 1.77zM32.58 56.85a7.4 7.4 0 01.33-1.37 1.43 1.43 0 011.9-.73 2.19 2.19 0 00.88.1c2-.14 2.54.6 2 2.7a1.26 1.26 0 01-1.12 1 3 3 0 00-.73.25 3.27 3.27 0 01-2.52 0c-.75-.27-.73-1-.74-1.95z" class="cls-3"/><path fill="#00ef00" d="M29.43 42.23c3.22 0 3.22-5 0-5s-3.22 5 0 5z"/></svg>
