<svg xmlns="http://www.w3.org/2000/svg" viewBox="0 0 80.4 83.13"><defs><style>.cls-1{fill:#3f3f3f}.cls-2{fill:none;stroke:#fff;stroke-miterlimit:10}</style></defs><path d="M76.24 25.14a6.91 6.91 0 00-5.46-1.45 22.79 22.79 0 00-3.11 1.08l-.19-.47a34.28 34.28 0 00-7.36-11.91 21.94 21.94 0 00-3.06-2.76A43.44 43.44 0 0052.59 7a28.63 28.63 0 00-4-1.89 36.81 36.81 0 00-4.15-1 2.27 2.27 0 01.1-.36c.31-.73.63-1.46 1-2.2.19-.44.23-.88-.21-1.18a.79.79 0 00-1.16.23 4.05 4.05 0 00-.53.93c-.35.87-.66 1.74-1 2.57l-6.75-.32c0-.24.07-.49.09-.75.02-.72.02-1.48.02-2.24a.75.75 0 00-.8-.79.81.81 0 00-.84.78v.36c-.09.85-.18 1.71-.29 2.56 0 .15-.14.39-.25.41-.77.15-1.56.26-2.37.39a8.16 8.16 0 00-.07-.9c-.17-.88-.34-1.76-.56-2.63a.77.77 0 00-1-.63.82.82 0 00-.6 1c0 .25.15.5.19.75.15.89.28 1.79.43 2.74h-.76a3.67 3.67 0 00-.58.06c-.9.2-.9.2-1.27-.65a1.82 1.82 0 00-.16-.32.79.79 0 00-1-.36.76.76 0 00-.5 1c.07.31.18.6.25.81-1.12.54-2.18 1.09-3.28 1.56a20.49 20.49 0 00-7 5A10.86 10.86 0 0014 14c-.73 1.31-1.36 2.68-2 4l-.74-.59a8.77 8.77 0 00-4.86-2.1c-.61-.07-1.08.19-1.17.67s.22.91.88 1a8.69 8.69 0 015 2.58.59.59 0 01.17.49 30.4 30.4 0 01-.94 2.46.62.62 0 01-.52.29c-1.17-.22-2.33-.53-3.51-.73A14.21 14.21 0 00.86 22 1 1 0 000 23.06c.09.5.53.75 1.16.67l1.54-.19a16.78 16.78 0 015.16.55c.52.1 1 .22 1.48.32L7 38.13a3.3 3.3 0 00-2.6 1.66 9.28 9.28 0 00-1 2.14 18.07 18.07 0 00-.1 10.29 9.43 9.43 0 002.27 4.36 3.15 3.15 0 002.91 1.08c.14 0 .41.19.48.35.7 1.82 1.3 3.68 2.05 5.49.64 1.55 1.52 3 2.15 4.54a21.15 21.15 0 006.61 9.1.87.87 0 01.18.21l.35.24a1.31 1.31 0 01.51.33c.45 0 .78.46 1.16.55.58.41 0 0 0 0 .56.31 1 .86 1.52 1.16 1.1.61 2.3.92 3.42 1.47a21.88 21.88 0 002.83 1.1 3.24 3.24 0 01.57.25c.76.16 1.52.44 2.29.56h.21c.47 0 .85.09 1.19.09 2.67-.11 5-.28 7.52-.56A20.92 20.92 0 0047.47 81a28.79 28.79 0 007.77-5.43 39.25 39.25 0 004.83-5.24 49 49 0 0010.12-28c0-.66.07-1.33.11-2l.62.25a6.56 6.56 0 009-4 10.34 10.34 0 00-3.68-11.44zM7 55.47a6.09 6.09 0 01-1.2-1.62A15.61 15.61 0 015.24 42a6.47 6.47 0 011-1.66 3 3 0 01.81-.53 76.73 76.73 0 001.36 16A1.13 1.13 0 017 55.47zm53.18 11.74a34.59 34.59 0 01-7.57 8.21 36.4 36.4 0 01-3.7 2.83 17.91 17.91 0 01-8 2.61 33.83 33.83 0 01-10.78-.46 16.75 16.75 0 01-2.13-.87 20.59 20.59 0 01-7.46-5.18 32.21 32.21 0 01-5.14-6.51 55.11 55.11 0 01-5.55-15.45 35.93 35.93 0 01-.47-10c.15-1.64 0-3.31.1-5 0-1.05.21-2.1.32-3.16a41.68 41.68 0 01.47-4.22c.35-1.67.92-3.3 1.41-5l1.45.4a3.36 3.36 0 00.64.12.79.79 0 00.91-.68.8.8 0 00-.65-.94c-.44-.14-.89-.23-1.33-.36-.22-.07-.44-.16-.73-.27l.73-1.9h.16c.53.53.95.62 1.35.27s.37-.85 0-1.4c-.66-.87-.64-.86-.06-1.79s1-1.75 1.52-2.58a20.49 20.49 0 016.62-6.65 18.27 18.27 0 014.11-1.67 6.61 6.61 0 01-.1 3.26 1.56 1.56 0 00.12 1.06.82.82 0 001.45-.46A29.12 29.12 0 0028.22 8a5 5 0 00-.14-1l1.61-.35-1.24 4a9.56 9.56 0 00-.3 1 .77.77 0 00.56 1 .76.76 0 001-.48 79.5 79.5 0 001.24-3.68c.2-.63.31-1.28.49-1.91a.48.48 0 01.32-.27c.66-.12 1.33-.22 2.09-.33a10.91 10.91 0 00-.1 2.07 19.72 19.72 0 00.72 3.18 10.21 10.21 0 001 1.79 3.31 3.31 0 00.36.55.88.88 0 001.22.23.89.89 0 00.2-1.18c-.4-.93-.75-1.88-1.17-2.81a9.43 9.43 0 01-.42-4c2.24-.51 4.46.11 6.74-.09A9.32 9.32 0 0042.26 7a9.17 9.17 0 00.28 1.87.8.8 0 001.12.51c.49-.23.5-.62.43-1.11C44 7.48 44 6.71 43.92 6a19.09 19.09 0 018.8 2.77A27.73 27.73 0 0162 17.52a36.91 36.91 0 015.88 15.32 47.65 47.65 0 01-7.7 34.37zM78 36.49a4.77 4.77 0 01-6.67 2.27c-.35-.17-.72-.29-1-.42-.19-1.8-.32-3.63-.59-5.44-.25-1.63-.66-3.24-1-4.87a6 6 0 01-.09-1.28c0-.14.16-.3.29-.4a4.54 4.54 0 014.91-.55 8.06 8.06 0 014.75 6.6 6.8 6.8 0 01-.6 4.09z" class="cls-1"/><path d="M11.69 25.07l1.45.4a3.36 3.36 0 00.64.12.79.79 0 00.91-.68.8.8 0 00-.65-.94c-.44-.14-.89-.23-1.33-.36-.22-.07-.44-.16-.73-.27l.73-1.9h.16c.53.53.95.62 1.35.27s.37-.85 0-1.4c-.66-.87-.64-.86-.06-1.79s1-1.75 1.52-2.58a20.49 20.49 0 016.62-6.65 18.27 18.27 0 014.1-1.73 6.61 6.61 0 01-.1 3.26 1.56 1.56 0 00.12 1.06.82.82 0 001.45-.46A29.13 29.13 0 0028.22 8a5 5 0 00-.14-1l1.61-.35-1.24 4a9.57 9.57 0 00-.3 1 .77.77 0 00.56 1 .76.76 0 001-.48 79.5 79.5 0 001.24-3.68c.2-.63.31-1.28.49-1.91a.48.48 0 01.32-.27c.66-.12 1.33-.22 2.09-.33a10.91 10.91 0 00-.1 2.07 19.72 19.72 0 00.72 3.18 10.2 10.2 0 001 1.79 3.31 3.31 0 00.36.55.88.88 0 001.22.23.89.89 0 00.2-1.18c-.4-.93-.75-1.88-1.17-2.81a9.43 9.43 0 01-.42-4c2.24-.51 4.46.11 6.74-.09A9.31 9.31 0 0042.26 7a9.17 9.17 0 00.28 1.87.8.8 0 001.12.51c.49-.23.5-.62.43-1.11C44 7.48 44 6.71 43.92 6a19.09 19.09 0 018.8 2.77A27.73 27.73 0 0162 17.52a36.91 36.91 0 015.88 15.32 47.65 47.65 0 01-7.7 34.37 34.59 34.59 0 01-7.57 8.21 36.39 36.39 0 01-3.7 2.83 17.9 17.9 0 01-8 2.61 33.83 33.83 0 01-10.78-.46 16.76 16.76 0 01-2.13-.87 20.59 20.59 0 01-7.46-5.18 32.21 32.21 0 01-5.14-6.51 55.11 55.11 0 01-5.55-15.45 35.93 35.93 0 01-.47-10c.15-1.64 0-3.31.1-5 0-1.05.21-2.1.32-3.16a41.69 41.69 0 01.47-4.22c.36-1.6.92-3.22 1.42-4.94zm10.82 17.11c.22 1.09.42 2.5.81 3.85a3.71 3.71 0 003.46 2.85 5.83 5.83 0 01.7.12 5.7 5.7 0 005.71-1.88 13 13 0 002-4.25c.34-1 .61-2.11.85-3.18.53-2.43.61-4.76-1.51-6.61A6.31 6.31 0 0031 31.29a6 6 0 00-4.13 1.07 8.4 8.4 0 00-4 6c-.12 1.14-.21 2.32-.36 3.82zm15.74 26.75c2-.39 4.05-.72 6.07-1.22a16.3 16.3 0 004.92-2.65 15.1 15.1 0 003.85-3.63 18.22 18.22 0 002.34-4.64c.16-.43.13-.81-.35-1s-.7.13-.89.49c0 .05 0 .11-.07.16-.6 1.11-1.13 2.26-1.81 3.31a6.75 6.75 0 01-1.81 2c-2.36 1.52-4.62 3.2-7.39 4a16.88 16.88 0 01-6.3.79 15.77 15.77 0 01-5.39-1 30.71 30.71 0 01-4-2 31 31 0 01-3.23-2.76 2.81 2.81 0 00-.74-.6 1 1 0 00-.84.06c-.16.16-.13.57-.1.86a.89.89 0 00.3.44c1.28 1.29 2.55 2.59 3.87 3.85a8.28 8.28 0 004 2.24c2.43.62 4.95.9 7.57 1.3zm2.46-27.78a6.66 6.66 0 000 .72A5 5 0 0042 45.13c1.8 1.73 5 1.16 6.33.25 1.12-.76 2.15-1.67 3.3-2.37a4.69 4.69 0 001.92-1.9 5.9 5.9 0 00.18-5.58c-.73-1.53-2.17-2.42-3.87-1.35a3.28 3.28 0 01-3.16.17 4 4 0 00-4.46 1.59 9.66 9.66 0 00-1.53 5.21zm-10 16a3.29 3.29 0 002.82 3.56c1.6.39 3-.27 4.38-.79a2.07 2.07 0 00.86-.71 4.45 4.45 0 00.52-4.54 2.36 2.36 0 00-2-1.53l-3.05-.34a1.55 1.55 0 00-.54 0 3.35 3.35 0 00-2.54 2.2 17.32 17.32 0 00-.44 2.18zM70.27 38.35c-.19-1.8-.32-3.63-.59-5.44-.25-1.63-.66-3.24-1-4.87a6 6 0 01-.09-1.28c0-.14.16-.3.29-.4a4.54 4.54 0 014.91-.55 8.06 8.06 0 014.75 6.6 6.8 6.8 0 01-.54 4.08 4.77 4.77 0 01-6.67 2.27c-.33-.17-.75-.29-1.06-.41zM7.08 39.83a76.73 76.73 0 001.36 16A1.13 1.13 0 017 55.47a6.09 6.09 0 01-1.2-1.62A15.61 15.61 0 015.24 42a6.47 6.47 0 011-1.66 3 3 0 01.84-.51z" class="cls-2"/><path d="M22.51 42.18c.15-1.5.24-2.68.4-3.84a8.4 8.4 0 014-6A6 6 0 0131 31.29a6.31 6.31 0 013.51 1.78c2.12 1.85 2 4.18 1.51 6.61a31.7 31.7 0 01-.85 3.18 13 13 0 01-2 4.25A5.7 5.7 0 0127.49 49a5.83 5.83 0 00-.7-.12A3.71 3.71 0 0123.32 46c-.39-1.32-.59-2.73-.81-3.82zm12-4.81A4 4 0 0032.87 34a3.34 3.34 0 00-3.44-.7 8.08 8.08 0 00-1.63.82 6.09 6.09 0 00-2.57 3.08 13.34 13.34 0 000 8.65 1.73 1.73 0 001.5 1.21 5.22 5.22 0 011.06.16 4 4 0 004-1.51 16.14 16.14 0 002-5.14c.27-1.07.51-2.14.76-3.2zM38.25 68.93c-2.62-.4-5.14-.68-7.61-1.19a8.28 8.28 0 01-4-2.24c-1.32-1.25-2.58-2.56-3.87-3.85a.89.89 0 01-.3-.44c0-.29-.06-.69.1-.86a1 1 0 01.84-.06 2.81 2.81 0 01.74.6 31 31 0 003.23 2.76 30.71 30.71 0 004 2 15.77 15.77 0 005.39 1 16.88 16.88 0 006.3-.79c2.77-.82 5-2.5 7.39-4a6.75 6.75 0 001.81-2c.68-1.05 1.22-2.2 1.81-3.31 0-.05 0-.11.07-.16.19-.36.44-.66.89-.49s.51.57.35 1a18.22 18.22 0 01-2.34 4.64 15.1 15.1 0 01-3.85 3.63 16.3 16.3 0 01-4.92 2.65c-1.98.39-4.04.72-6.03 1.11zM40.71 41.15a9.66 9.66 0 011.52-5.21 4 4 0 014.46-1.59 3.28 3.28 0 003.16-.17c1.7-1.07 3.14-.13 3.91 1.35a5.9 5.9 0 01-.18 5.58A4.69 4.69 0 0151.66 43c-1.16.7-2.18 1.61-3.3 2.37-1.34.91-4.52 1.48-6.33-.25a5 5 0 01-1.31-3.26 6.66 6.66 0 01-.01-.71zm11.91-3a10.61 10.61 0 00-.37-1.73c-.33-.85-.88-1.09-1.62-.69a5 5 0 01-4.48.27 2.09 2.09 0 00-2.38.8 7.33 7.33 0 00-1.23 5.29 2.24 2.24 0 001.08 2 3.94 3.94 0 004-.39c1.3-.81 2.52-1.74 3.78-2.62a1 1 0 00.25-.25 4.64 4.64 0 00.97-2.64z" class="cls-1"/><path d="M30.72 57.18a17.32 17.32 0 01.44-2.18 3.35 3.35 0 012.59-2.17 1.55 1.55 0 01.54 0l3.05.34a2.36 2.36 0 012 1.53 4.45 4.45 0 01-.52 4.54 2.07 2.07 0 01-.86.71c-1.41.52-2.78 1.18-4.38.79a3.29 3.29 0 01-2.86-3.56zm1.85-.34c0 1 0 1.69.78 2a3.27 3.27 0 002.52 0 3 3 0 01.73-.25 1.26 1.26 0 001.12-1c.49-2.1 0-2.84-2-2.7a2.19 2.19 0 01-.88-.1 1.43 1.43 0 00-1.9.73 7.4 7.4 0 00-.36 1.33z" class="cls-1"/><path d="M34.55 37.37l-.73 3.2a16.14 16.14 0 01-2 5.14 4 4 0 01-4 1.51 5.22 5.22 0 00-1.06-.16 1.73 1.73 0 01-1.5-1.21 13.34 13.34 0 010-8.65 6.09 6.09 0 012.57-3.08 8.08 8.08 0 011.63-.82 3.34 3.34 0 013.44.7 4 4 0 011.65 3.37zM52.62 38.19a4.64 4.64 0 01-.95 2.64 1 1 0 01-.25.25c-1.25.88-2.48 1.81-3.78 2.62a3.94 3.94 0 01-4 .39 2.24 2.24 0 01-1.08-2 7.33 7.33 0 011.23-5.29 2.09 2.09 0 012.38-.8 5 5 0 004.48-.27c.73-.4 1.29-.16 1.62.69a10.61 10.61 0 01.35 1.77zM32.58 56.85a7.4 7.4 0 01.33-1.37 1.43 1.43 0 011.9-.73 2.19 2.19 0 00.88.1c2-.14 2.54.6 2 2.7a1.26 1.26 0 01-1.12 1 3 3 0 00-.73.25 3.27 3.27 0 01-2.52 0c-.75-.27-.73-1-.74-1.95z" class="cls-2"/></svg>
