<svg xmlns="http://www.w3.org/2000/svg" viewBox="0 0 206.48 466.36"><defs><style>.cls-1{fill:none;stroke:#888;stroke-miterlimit:10;stroke-width:2px}</style></defs><path d="M37.4 56.11a29 29 0 00-19.24-11.75m19.06 22.3A71.63 71.63 0 00.14 62.08m71.56-32.3a43.19 43.19 0 00-3.5-18m10.48 19.5a35 35 0 002.87-27.12m15.17 30.57c-1.73-2.21-2.2-5.13-2.47-7.93a88.58 88.58 0 011.16-25.48m19.39 23.96l.93-14.63c.22-3.52.54-7.3 2.8-10M85.39 145.66a8.49 8.49 0 00-1.34 10.29 9.91 9.91 0 009.61 4.49 11.94 11.94 0 008.79-6.28 8.94 8.94 0 001.08-5.92c-1.39-6.6-14.12-6.24-18.14-2.58zM125 94.59a17.38 17.38 0 00-4.7-.46c-3.87.5-6.2 4.52-7.46 8.22-1.66 4.89-2.47 10.44-.25 15.11a4.46 4.46 0 001.51 1.93 5 5 0 002.64.56 30.39 30.39 0 0022.75-10.1c1.94-2.19 3.6-4.82 3.74-7.73.52-11.56-12.15-6.64-18.23-7.53zm-39.07-6.46a12.36 12.36 0 00-9.06-1.86c-3 .7-5.45 2.86-7.4 5.24a31.41 31.41 0 00-4.7 31.12 10.68 10.68 0 002.41 3.88c2.37 2.21 6 2.32 9.22 2.17 3.08-.14 6.29-.44 8.88-2.1 3.07-2 4.72-5.53 5.84-9 3.45-10.69 5.51-22.92-5.19-29.45z" class="cls-1"/><path d="M62.07 164.85c8.1 7.2 17.69 13 28.24 15.44s22.12 1.47 31.51-3.94c9.74-5.62 16.34-15.28 22.61-24.62" class="cls-1"/><path d="M26 66.81c-7.23 20.22-7.89 42.32-5.13 63.62 2.83 21.85 9.44 43.75 23 61.11s34.9 29.56 56.89 28.31c14.06-.8 27.46-6.95 38.54-15.65s20-19.85 27.8-31.57c4.26-6.41 8.25-13.07 10.84-20.32 2.78-7.78 3.88-16 4.73-24.26a183.2 183.2 0 001.21-23.73 117.14 117.14 0 00-30.64-75.49 44.64 44.64 0 00-10.08-8.62 47.15 47.15 0 00-12.42-4.58C96.3 7 61.39 13 39.12 42.39A91.64 91.64 0 0026 66.81z" class="cls-1"/><path d="M177.4 67.89c5.19-1.55 10.89-2.6 15.92-.61a17.44 17.44 0 018.62 8.06 31.54 31.54 0 013.29 11.51c.43 3.8.43 7.78-1.12 11.27a15.84 15.84 0 01-8.52 8 22.93 22.93 0 01-11.74 1.27m-164.78-1.83c-5.39 3-9 8.7-10.22 14.73s-.44 12.35 1.4 18.24a24.27 24.27 0 005.26 9.8c2.6 2.69 6.42 4.42 10.1 3.75m27.62 50.22q4 111.72 9.13 223.4c.16 3.4.46 7.14 2.87 9.54 1.65 1.65 4 2.34 6.28 2.9a97.7 97.7 0 0049.11-.81 9.07 9.07 0 004.21-2.06 8.51 8.51 0 001.9-4.57c1.15-6.49.67-13.14.1-19.7a817.53 817.53 0 00-40.28-192.17M64.82 434.77q-.17 15.51.78 31m59.57-30.16c2.09 10.43-6.88 20.11-7 30.74M27.09 322.6c-2.28 3.86-3.4 8.6-2.14 12.9s5.27 7.91 9.75 7.86c3.19 0 6.13-1.82 8.43-4a23.39 23.39 0 006.72-20.39 11.14 11.14 0 00-2-5.17c-6.76-8.42-17.41 3.12-20.76 8.8zm96.86-20.22c11.49 8.82 26.51 11.47 41 12.48 3 .21 6.25.24 8.45-1.74a10 10 0 002.09-3 42.09 42.09 0 003.21-28.52 23.32 23.32 0 00-3.78-8.62c-5-6.66-13.68-8.08-21.38-9.31s-13-4.14-19.77-7.41c-15.14-7.26-25.79 9.45-23.6 23.42a36.54 36.54 0 0013.78 22.7z" class="cls-1"/><path fill="#8aff64" d="M71.94 105.51c-3.38 9.28 11 14.55 14.42 5.25s-11.04-14.55-14.42-5.25z"/></svg>
