<svg xmlns="http://www.w3.org/2000/svg" viewBox="0 0 232.32 480"><defs><style>.cls-1{fill:#fff;fill-opacity:0}.cls-1,.cls-2{stroke:#888;stroke-miterlimit:10;stroke-width:2px}</style></defs><path d="M191.12 298.63c-.33-3.64-.33-7.34-1.05-10.9a29.72 29.72 0 00-7.68-15.33 12.53 12.53 0 00-5.12-3.29c-4.46-1.46-9.11-1.8-13.73-2.37a47 47 0 01-13.21-3.74 28.55 28.55 0 00-9.24-2.7c-5.46-.42-10.64.41-14.66 4.61a12.58 12.58 0 00-2.61 3.75 22.21 22.21 0 00-1.12 5 34.76 34.76 0 00-.49 9.82 37.81 37.81 0 003.79 12.98c3.84 7.24 9.22 13 17.45 15.47 3.5 1 6.93 2.36 10.46 3.25 4.23 1.06 8.58 1.64 12.79 2.74a36.29 36.29 0 0011.3 1.62 12.25 12.25 0 007.82-3.21c2.08-1.91 3-4.54 3.88-7.1 1.19-3.42 1.3-7 1.42-10.6zm-130 30.8a37.82 37.82 0 00-.38-4.86c-.87-4.25-2.24-8.22-7.14-9.42-1.33-.32-2.71-.81-3.94.46-1.55 1.59-3.33 3-4.78 4.63-4.88 5.64-7.92 12-6.9 19.7.4 3 1.5 5.52 4.62 6.83 3.86 1.63 9.52.86 12.57-2.57 3.77-4.2 6.31-8.9 5.98-14.77z" class="cls-1"/><path d="M223 95.86c-.24 1.06-.4 2.16-.74 3.19-2.28 7.07-6.78 11.75-14.29 13.13a18.85 18.85 0 01-11.34-1.56l-.75-.32s-.07 0-.23.08v3.15c-.15 4.3-.1 8.63-.54 12.9-.56 5.42-1.58 10.79-2.3 16.2-1.29 9.78-5.4 18.49-10 27a147.25 147.25 0 01-12.71 19.29 136.74 136.74 0 01-16 17.42A74.17 74.17 0 01138 218a31.65 31.65 0 01-9.77 3.41 45.57 45.57 0 00-4.57 1.42 45.24 45.24 0 01-11.46 1.65c-2.71 0-5.43.16-8.11-.06s-5.2-.82-7.8-1.25c0 0-.07 0-.14.08 4.33 10.44 8 21.12 11.33 31.92q6.9 22.29 12.17 45c2 8.84 4.09 17.69 5.94 26.57 1.53 7.32 2.8 14.69 4.14 22 1 5.46 2 10.93 2.84 16.42.65 4.05 1.15 8.13 1.72 12.19s1.15 7.89 1.64 11.84c.4 3.22.67 6.46 1 9.69.4 3.94.81 7.88 1.17 11.83.22 2.38.41 4.76.49 7.14.2 5.63.39 11.25.47 16.88a66.1 66.1 0 01-.29 9.67c-.53 4-1.51 7.87-2.42 11.77-.78 3.32-1.88 6.57-2.61 9.91-.56 2.53-.77 5.14-1.13 7.72 0 .22-.07.43-.1.65h-.37c.08-.8.11-1.6.25-2.39.6-3.37 1.11-6.75 1.88-10.08s1.9-6.72 2.74-10.11c.57-2.29.94-4.62 1.37-6.95a4.49 4.49 0 00-.06-1.05c-2.76 1-5.36 2.14-8.06 2.87-4.13 1.1-8.31 2-12.51 2.81a64.18 64.18 0 01-14.49 1c-9.18-.34-18.14-1.75-26.45-6a3 3 0 00-.54-.14l.33 7.84c0 .32.1.63.11.95.09 3.27.14 6.54.25 9.81.15 4.14.34 8.28.51 12.42a.51.51 0 01-.18.46 23.45 23.45 0 01-.32-2.39c-.11-3.11-.15-6.22-.26-9.33q-.34-9.32-.72-18.64c-.14-3.42-.33-6.84-.47-10.27-.18-4.38-.32-8.76-.49-13.15l-.47-11.35-.49-12.19-.47-11.23-.72-18-.48-11.35q-.25-6-.48-12.07l-.48-11.47-.48-11.95-.48-11.47q-.25-6-.48-12.07-.23-5.74-.48-11.47l-.48-11.95-.48-11.59-.48-11.94-.48-11.47-.48-11.94-.48-11.59c-.15-3.38-.3-6.76-.5-10.14a1.66 1.66 0 00-.48-1c-8.51-8.12-14.9-17.75-20-28.27a115.56 115.56 0 01-7.08-18.15 1.34 1.34 0 00-1.23-1.12c-2.36-.41-4.74-.81-6.78-2.24a17.79 17.79 0 01-6.28-8.51 53.62 53.62 0 01-2.47-9.18 46.84 46.84 0 01-1-12.91c.53-5.89 2.25-11.38 6.55-15.76 1.12-1.14 2.54-1.46 4.29-1.71-.33.28-.45.47-.59.48a7.27 7.27 0 00-5.4 3.82 27.9 27.9 0 00-4.45 16 67.94 67.94 0 002.46 16.7 23.52 23.52 0 004.46 8.32 12.12 12.12 0 008.19 4.34c.43.05.85.16 1.28.23a.79.79 0 00.29-.05c-.9-3.37-1.9-6.86-2.6-10.31-.82-4.09-1.43-8.22-2.1-12.34a128.35 128.35 0 01-1.33-19.49c0-4.17.35-8.35.61-12.52a118.56 118.56 0 014.34-24.64c.85-3 1.87-6 2.91-9 .29-.81.05-1-.64-1.1-4.81-.64-9.63-1.24-14.43-1.95-3.41-.5-6.68.27-10 .86-.44.08-.89.08-1.47.12.14-.27.18-.43.24-.44a46.13 46.13 0 0111.91-1c2.63.24 5.23.72 7.85 1.11 2.14.32 4.28.71 6.43 1 .28 0 .78-.44.94-.79 1.45-3.23 2.84-6.49 4.32-9.89a37 37 0 00-17.12-9.05c6.75 1 12.37 4.23 17.42 8.77 8.55-15.73 20.2-28.2 37.25-34.84-.41-1.23-.71-2.28-1.12-3.28s-.93-1.95-1.4-2.92l.32-.16c.48.94 1 1.86 1.42 2.82s.75 2.06 1.11 3.09L93 18.59c-.16-3.59-1.16-7.13-1.9-10.73a45.26 45.26 0 012.39 10.57l10.67-2.23.68-9.33h.35l-.57 9.39a73.26 73.26 0 0122.29.13c.71-2.78 1.05-5.68 2.74-8.12-.59 1.9-1.21 3.8-1.75 5.72-.68 2.4-.66 2.44 1.7 2.88a69.54 69.54 0 0130.58 14 91.2 91.2 0 019.41 8.65 84.78 84.78 0 0116 24.56c1.57 3.52 2.78 7.2 4.16 10.8 0 .1.15.18.07.09a50.21 50.21 0 016.55-3.28c6.41-2.14 12.32-.67 17.62 3.27a23.11 23.11 0 018.8 14.21l.27 1.19zM93 19.07c-2.69.89-5.14 1.61-7.53 2.51s-2.88.42-1.9 3.42a2.47 2.47 0 010 .48c.23 2.08.55 4.16.66 6.25a27.59 27.59 0 01-.3 3.81h-.35A31.55 31.55 0 0082.56 23c-1 .43-1.77.77-2.55 1.14-3.73 1.78-7.58 3.3-10.95 5.82A78.9 78.9 0 0056 41.92a99 99 0 00-10.07 14.72 1.24 1.24 0 00.3 1.78 29.66 29.66 0 012.2 2.64l-.26.2-2.91-3.44-4.71 10.46 8.18 2.25-.1.33-8-2.14a4 4 0 00-.38.64 107.25 107.25 0 00-4.83 16.81c-.84 4.56-1.61 9.15-2.15 13.75-.51 4.33-.78 8.69-1 13.05-.12 2.82.09 5.66.21 8.49.11 2.62.21 5.24.49 7.84q.71 6.4 1.67 12.77a116.58 116.58 0 004.24 17.48 124.54 124.54 0 0012 27.09 86.93 86.93 0 0012.58 16.57 105.2 105.2 0 009 8 58.39 58.39 0 0016.92 9.44 61.31 61.31 0 0016 3.41 51.77 51.77 0 0011.76-.38 83.8 83.8 0 0010.49-2.5 60.55 60.55 0 009.27-3.18c7.11-3.36 13.13-8.34 18.78-13.72a116.12 116.12 0 008.37-8.86c3.38-4 6.69-8 9.74-12.29a124.26 124.26 0 0014-24.49 48.94 48.94 0 003-8.15 277.35 277.35 0 003.2-17.64 95.5 95.5 0 001.15-11.8c.14-5.3 0-10.62-.22-15.92-.18-3.78-.69-7.55-1.16-11.31a102.81 102.81 0 00-4.33-18.78 93.88 93.88 0 00-9.17-20.53c-3.75-6.11-7.6-12.18-13.11-16.94-3.25-2.8-6.32-5.84-9.78-8.36a69.71 69.71 0 00-25.69-11.58c-1.43-.33-2.88-.54-4.59-.85L126.68 29h-.4l.39-12.28a64.14 64.14 0 00-6.92-.69c-4.62 0-9.24.28-13.86.44-.8 0-1.32.32-1.33 1.22s-.09 2.07-.09 3.1c0 2.33-.38 4.75.12 7 .83 3.74 2.21 7.35 3.37 11 .27.84.59 1.65.89 2.48-3.9-7.72-6.14-15.78-4.47-24.79L93.5 19c-.29 6.24-1 12.21-4.42 17.49A35.76 35.76 0 0093 19.07zM66.46 207.28c.19 3.62.39 7.32.56 11 .18 4 .33 8 .49 11.94l.49 11.72.48 11.83q.24 5.92.52 11.59l.49 11.95.47 11.47.49 12.07.47 11.35.49 12.07.47 11.47.49 12.07.47 11.35.49 12.31.47 11.11.49 12.43.47 11.11.49 12.31.47 11.11c.17 4.42.35 8.84.47 13.27a1.56 1.56 0 001 1.63c7.61 3.73 15.76 5.27 24.13 5.68a82.44 82.44 0 0019.8-1.38 80.85 80.85 0 0016.55-5 1 1 0 00.73-1.15v-3.24c.06-4 .26-8 .14-12-.17-5.53-.57-11-.9-16.57-.13-2.14-.28-4.28-.5-6.41-.36-3.42-.78-6.84-1.17-10.26-.41-3.66-.75-7.32-1.23-11-.56-4.22-1.25-8.43-1.88-12.64-.73-4.8-1.39-9.6-2.2-14.38-1-5.58-2-11.15-3.08-16.71-1.11-5.83-2.19-11.68-3.44-17.48a719.92 719.92 0 00-5.23-22.87 979.52 979.52 0 00-8.77-33.37c-2.79-9.67-6-19.21-9.23-28.76-1.44-4.32-3.22-8.54-4.89-12.78a2.1 2.1 0 00-1.09-1.2A57.25 57.25 0 0178 215.57c-3.94-2.57-7.64-5.47-11.54-8.29zm156.23-114c-.12-1.22-.2-2.45-.37-3.66a21 21 0 00-6.12-12.16c-4.76-4.76-10.52-7.12-17.34-6a15.23 15.23 0 00-8.19 3.93 1.41 1.41 0 00-.42 1.1c1.18 5.17 2.55 10.31 3.57 15.51.7 3.56 1 7.2 1.36 10.81.23 2.09.29 4.2.5 6.3a1.37 1.37 0 00.67.92 19.18 19.18 0 0010.17 2 16.43 16.43 0 0011.12-5.39 18.88 18.88 0 005.05-13.38z" class="cls-2"/><path d="M191.12 298.63c-.13 3.6-.22 7.18-1.45 10.59-.92 2.56-1.8 5.19-3.88 7.1a12.25 12.25 0 01-7.82 3.21 36.29 36.29 0 01-11.21-1.62c-4.22-1.1-8.57-1.67-12.79-2.74-3.54-.89-7-2.21-10.46-3.25-8.24-2.44-13.61-8.23-17.45-15.47a37.81 37.81 0 01-3.84-12.95 34.76 34.76 0 01.49-9.82 22.21 22.21 0 011.12-5 12.58 12.58 0 012.61-3.75c4-4.2 9.2-5 14.66-4.61a28.55 28.55 0 019.24 2.7 47 47 0 0013.22 3.75c4.61.57 9.26.92 13.73 2.37a12.53 12.53 0 015.12 3.29 29.72 29.72 0 017.68 15.33c.69 3.53.7 7.24 1.03 10.87zm-.39-.19c-.4-3.78-.53-7.61-1.26-11.33a28.69 28.69 0 00-6.13-13 13.49 13.49 0 00-6.11-4.52c-4.27-1.42-8.71-1.83-13.13-2.33a47.2 47.2 0 01-14.24-4c-5.2-2.36-10.56-3.3-16.14-2-4.54 1.07-8.19 3.67-9.68 8.17a42 42 0 00-1.51 9.67c-.49 6 1.53 11.6 3.8 17 1.8 4.33 5.2 7.46 8.51 10.61a13.7 13.7 0 002.84 2.12 69.58 69.58 0 0016 5.82c4.21 1.09 8.56 1.66 12.79 2.73 4 1 7.95 2.09 12.11 1.63 2.95-.32 5.7-1.32 7.47-3.75a29.48 29.48 0 003.14-6c1.44-3.46 1.22-7.15 1.54-10.82zM61.15 329.43c.33 5.88-2.21 10.57-6 14.77-3.05 3.42-8.71 4.2-12.57 2.57-3.12-1.32-4.22-3.79-4.62-6.83-1-7.72 2-14.06 6.9-19.7 1.45-1.67 3.23-3 4.78-4.63 1.23-1.27 2.61-.78 3.94-.46 4.91 1.19 6.28 5.17 7.14 9.42a37.82 37.82 0 01.43 4.86zm-.61-.23a20 20 0 00-.89-7.41c-1.24-3.55-3.38-5.85-7.19-6.49a2.87 2.87 0 00-2.62.71 70.16 70.16 0 00-5.3 5.31c-4.21 5-6.68 10.7-6.29 17.38.19 3.21 1.11 6.06 4.36 7.51A8.3 8.3 0 0045 347c3.36.34 6.58 0 9.17-2.53 4.28-4.15 6.88-9.02 6.37-15.27z" class="cls-2"/><path d="M93 19.07a35.76 35.76 0 01-3.9 17.45c3.4-5.27 4.11-11.25 4.4-17.52l10.88-2.62c-1.67 9 .57 17.07 4.47 24.79-.3-.83-.62-1.64-.89-2.48-1.16-3.66-2.54-7.27-3.37-11-.49-2.23-.12-4.65-.12-7 0-1 .08-2.07.09-3.1s.52-1.2 1.33-1.22c4.62-.16 9.24-.42 13.86-.44a64.14 64.14 0 016.92.69l-.4 12.38h.4l.43-12.17c1.71.31 3.16.52 4.59.85a69.71 69.71 0 0125.69 11.58c3.45 2.52 6.53 5.56 9.78 8.36 5.51 4.76 9.37 10.84 13.11 16.94a93.88 93.88 0 019.17 20.53 102.81 102.81 0 014.33 18.78c.47 3.76 1 7.53 1.16 11.31.25 5.3.37 10.62.22 15.92a95.5 95.5 0 01-1.15 11.8c-.9 5.91-1.91 11.81-3.2 17.64a48.94 48.94 0 01-3 8.15 124.26 124.26 0 01-14 24.49c-3.05 4.24-6.36 8.3-9.74 12.29a116.12 116.12 0 01-8.37 8.86C150 209.71 144 214.69 136.9 218a60.55 60.55 0 01-9.35 3.16 83.8 83.8 0 01-10.49 2.5 51.77 51.77 0 01-11.76.38 61.31 61.31 0 01-16-3.41 58.39 58.39 0 01-16.92-9.44 105.2 105.2 0 01-9-8 86.93 86.93 0 01-12.58-16.57 124.54 124.54 0 01-12-27.09 116.58 116.58 0 01-4.24-17.48q-1-6.37-1.67-12.77c-.29-2.6-.38-5.22-.49-7.84-.12-2.83-.33-5.67-.21-8.49.18-4.36.45-8.72 1-13.05.54-4.61 1.3-9.19 2.15-13.75a107.25 107.25 0 014.83-16.81 4 4 0 01.38-.64l8 2.14.1-.33-8.18-2.25 4.71-10.47 2.91 3.44.26-.2a29.66 29.66 0 00-2.2-2.64 1.24 1.24 0 01-.3-1.78A99 99 0 0156 41.92a78.9 78.9 0 0113.06-12c3.36-2.52 7.21-4 10.95-5.82.78-.37 1.58-.7 2.55-1.14a31.55 31.55 0 011.06 12.54h.35a27.59 27.59 0 00.3-3.81c-.11-2.09-.43-4.17-.66-6.25a2.47 2.47 0 000-.48c-1-3-.49-2.55 1.89-3.44S90.29 20 93 19.07zm13 86.26l-.26-.06a3.24 3.24 0 00-.24.6c-.23 1.2-.38 2.41-.66 3.59-.72 3-1.47 6-2.23 9-1.17 4.61-2.4 9.18-6.47 12.27-2.42 1.84-4.91 3.49-8.14 3.23-1.65-.13-3.3-.25-4.93-.5-2.84-.43-5.07-1.72-5.93-4.67-.46-1.58-.83-3.18-1.21-4.78a46 46 0 01-1.39-12.84 20.93 20.93 0 012.07-8.68c2.69-5.29 7.22-8.66 12.26-11.41a6.42 6.42 0 014.54-.88 15 15 0 017.16 3.37c2.63 2.32 5 4.77 5.2 8.55 0 .86.21 1.71.37 2.9.18-2.46.33-4.62-.81-6.49-2.41-3.95-5.58-7.1-10.19-8.38a7.9 7.9 0 00-5.37.06 34 34 0 00-7.17 4.54 21.18 21.18 0 00-8.6 17.51 51.06 51.06 0 00.46 6.15 45.67 45.67 0 001.89 9.82c.83 2.41 2 4.57 4.68 5.19a52.48 52.48 0 007.22 1.05c2.39.22 4.44-.9 6.37-2.15 3-1.92 5.53-4.35 6.59-7.77 1.51-4.91 2.68-9.92 3.94-14.9.39-1.41.55-2.88.85-4.32zm51.63 51.43l-.36-.2-.48.87a58.88 58.88 0 01-10.48 14 52.38 52.38 0 01-16 10.88 46.57 46.57 0 01-17.48 4 52.76 52.76 0 01-10.38-.91c-10.42-1.84-19.22-6.84-26.74-14.2l-3.79-3.68a12.72 12.72 0 002.14 2.71c2.29 2.07 4.58 4.18 7 6.07a48.67 48.67 0 0026.22 10.26 46.59 46.59 0 0013.74-.84A51.76 51.76 0 00146.31 172a58.42 58.42 0 008.52-10.5c.99-1.55 1.84-3.16 2.76-4.74zM122.4 115.4a49.9 49.9 0 001.13 5.51c.72 2.33 2.08 4.34 4.7 4.83a17.85 17.85 0 003.54-.11 14.64 14.64 0 008-2.52c2.44-1.64 4.88-3.28 7.31-4.94a19 19 0 003.33-2.42 14.29 14.29 0 003.83-11.75c-.35-3.72-5.91-7.48-9.86-5.51a8 8 0 01-3.26.88c-2.5.06-5-.17-7.51-.18a8.55 8.55 0 00-6.65 3.12c-3.07 3.62-4.17 7.97-4.56 13.09zM103 148.22c-1.83.14-3.71 0-4.93 1.64a26.69 26.69 0 00-2.75 4.51 6.57 6.57 0 00-.22 4.84 8.76 8.76 0 0010.66 5.91 13.69 13.69 0 009.78-9c1.19-3.47.35-5.22-3.19-6.62-1.17-.46-2.59-.26-3.89-.44-1.82-.22-3.63-.54-5.46-.84z" class="cls-1"/><path d="M66.46 207.28c3.9 2.83 7.61 5.74 11.54 8.3a57.25 57.25 0 0016.87 7.29 2.1 2.1 0 011.09 1.2c1.67 4.24 3.45 8.46 4.89 12.78 3.19 9.55 6.45 19.09 9.23 28.76 3.19 11 6 22.22 8.77 33.37 1.9 7.58 3.58 15.22 5.23 22.87 1.25 5.8 2.33 11.65 3.44 17.48 1.06 5.56 2.13 11.13 3.08 16.71.82 4.78 1.48 9.59 2.2 14.38.64 4.21 1.32 8.42 1.88 12.64.49 3.65.82 7.31 1.23 11 .39 3.42.81 6.83 1.17 10.26.22 2.13.37 4.27.5 6.41.33 5.52.73 11 .9 16.57.12 4-.08 8-.14 12 0 1.08-.06 2.16 0 3.24a1 1 0 01-.73 1.15 80.85 80.85 0 01-16.55 5 82.44 82.44 0 01-19.8 1.38c-8.36-.41-16.51-1.95-24.13-5.68a1.56 1.56 0 01-1-1.63c-.12-4.42-.3-8.84-.47-13.27l-.47-11.11-.49-12.31-.47-11.11-.49-12.43-.47-11.11-.49-12.31-.47-11.35-.49-12.07-.47-11.47-.49-12.07-.47-11.35-.49-12.07-.47-11.47-.49-11.95-.48-11.58q-.24-5.79-.46-11.79l-.48-11.71c-.16-4-.31-8-.49-11.94-.18-3.7-.38-7.39-.57-11.01zM222.69 93.26a18.88 18.88 0 01-5 13.32 16.43 16.43 0 01-11.16 5.42 19.18 19.18 0 01-10.17-2 1.37 1.37 0 01-.67-.92c-.21-2.1-.27-4.21-.5-6.3-.39-3.61-.66-7.26-1.36-10.81-1-5.2-2.4-10.34-3.57-15.51a1.41 1.41 0 01.42-1.1 15.23 15.23 0 018.19-3.93c6.82-1.1 12.58 1.27 17.34 6a21 21 0 016.12 12.16c.16 1.22.24 2.41.36 3.67zM190.73 298.44c-.31 3.67-.09 7.36-1.54 10.81a29.48 29.48 0 01-3.14 6c-1.78 2.43-4.53 3.43-7.47 3.75-4.17.46-8.12-.62-12.11-1.63-4.22-1.06-8.57-1.63-12.79-2.73a69.58 69.58 0 01-16-5.82 13.7 13.7 0 01-2.84-2.12c-3.31-3.15-6.71-6.28-8.51-10.61-2.26-5.45-4.29-11-3.8-17a42 42 0 011.51-9.67c1.49-4.5 5.14-7.1 9.68-8.17 5.58-1.32 10.94-.38 16.14 2a47.2 47.2 0 0014.24 4c4.42.5 8.86.91 13.13 2.33a13.49 13.49 0 016.11 4.52 28.69 28.69 0 016.13 13c.72 3.73.86 7.56 1.26 11.34zM60.54 329.2c.51 6.25-2.09 11.12-6.34 15.3-2.58 2.5-5.8 2.88-9.2 2.5a8.3 8.3 0 01-2.42-.82c-3.25-1.45-4.17-4.3-4.36-7.51-.4-6.68 2.08-12.38 6.29-17.38a70.16 70.16 0 015.3-5.31 2.87 2.87 0 012.62-.71c3.81.64 5.95 2.93 7.19 6.49a20 20 0 01.92 7.44z" class="cls-1"/><path d="M106 105.33c-.25 1.44-.41 2.91-.77 4.32-1.26 5-2.43 10-3.94 14.9-1.06 3.43-3.62 5.85-6.59 7.77-1.93 1.25-4 2.37-6.37 2.15a52.48 52.48 0 01-7.22-1.05c-2.64-.62-3.85-2.78-4.68-5.19a45.67 45.67 0 01-1.89-9.82 51.06 51.06 0 01-.46-6.15 21.18 21.18 0 018.51-17.44 34 34 0 017.17-4.54 7.9 7.9 0 015.37-.06c4.61 1.28 7.78 4.43 10.19 8.38 1.14 1.86 1 4 .81 6.49-.16-1.2-.32-2-.37-2.9-.21-3.78-2.56-6.24-5.2-8.55a15 15 0 00-7.16-3.37 6.42 6.42 0 00-4.54.88c-5 2.75-9.57 6.11-12.26 11.41a20.93 20.93 0 00-2.07 8.68 46 46 0 001.39 12.84c.38 1.6.75 3.21 1.21 4.78.86 2.95 3.09 4.25 5.93 4.67 1.63.25 3.29.37 4.93.5 3.24.26 5.72-1.39 8.14-3.23 4.07-3.09 5.3-7.66 6.47-12.27.76-3 1.52-6 2.23-9 .28-1.18.43-2.4.66-3.59a3.24 3.24 0 01.24-.6zM157.59 156.76c-.91 1.57-1.77 3.18-2.75 4.71a58.42 58.42 0 01-8.52 10.5 51.76 51.76 0 01-25.25 13.7 46.59 46.59 0 01-13.74.84 48.67 48.67 0 01-26.23-10.26c-2.44-1.89-4.73-4-7-6.07a12.72 12.72 0 01-2.14-2.71l3.79 3.68c7.52 7.36 16.32 12.37 26.74 14.2a52.76 52.76 0 0010.38.91 46.57 46.57 0 0017.48-4 52.38 52.38 0 0016-10.88 58.88 58.88 0 0010.48-14l.48-.87zM122.4 115.4c.39-5.11 1.49-9.47 4.56-13a8.55 8.55 0 016.65-3.12c2.5 0 5 .24 7.51.18a8 8 0 003.26-.88c4-2 9.51 1.79 9.86 5.51a14.29 14.29 0 01-3.82 11.69 19 19 0 01-3.33 2.42c-2.43 1.66-4.87 3.3-7.31 4.94a14.64 14.64 0 01-8 2.52 17.85 17.85 0 01-3.54.11c-2.63-.48-4-2.49-4.7-4.83a49.9 49.9 0 01-1.14-5.54zm.39 0c.38 1.67.73 3.93 1.44 6.08a5.41 5.41 0 005.58 3.86 17.53 17.53 0 012.24-.23 14.24 14.24 0 008.34-2.92c2.1-1.46 4.17-3 6.37-4.29 4.66-2.78 7.14-6.71 7.18-12.21 0-4.07-2.3-6.27-5.64-7.14a4.25 4.25 0 00-2.79.11c-3.14 1.66-6.49 1.09-9.71.89s-5.87.46-8.09 2.68c-3.45 3.5-4.39 7.95-4.91 13.21z" class="cls-2"/><path d="M103 148.22c1.82.29 3.64.62 5.46.87 1.3.18 2.72 0 3.89.44 3.54 1.4 4.38 3.15 3.19 6.62a13.69 13.69 0 01-9.78 9 8.76 8.76 0 01-10.66-5.91 6.57 6.57 0 01.22-4.84 26.69 26.69 0 012.75-4.51c1.22-1.65 3.11-1.53 4.93-1.67zm0 .46c-3.5.14-3.95.25-5.68 2.76-1.26 1.82-2.4 3.83-2.15 6.13a8.38 8.38 0 008.17 7.42c5.12 0 10.57-4.27 11.93-9.28.94-3.46-.17-4.78-3.43-6-.93-.34-2.08-.06-3.11-.19a98.79 98.79 0 01-5.73-.84z" class="cls-2"/><path d="M122.8 115.44c.52-5.26 1.46-9.71 4.92-13.17 2.22-2.22 4.9-2.88 8.09-2.68s6.57.77 9.71-.89a4.25 4.25 0 012.79-.11c3.33.88 5.67 3.07 5.64 7.14 0 5.5-2.53 9.44-7.18 12.21-2.19 1.31-4.27 2.82-6.37 4.29a14.24 14.24 0 01-8.34 2.92 17.53 17.53 0 00-2.24.23 5.41 5.41 0 01-5.58-3.86c-.71-2.15-1.06-4.41-1.44-6.08zM103 148.68c1.91.29 3.81.63 5.72.87 1 .13 2.18-.15 3.11.19 3.26 1.19 4.38 2.52 3.43 6-1.37 5-6.82 9.28-11.93 9.28a8.38 8.38 0 01-8.17-7.42c-.25-2.3.89-4.31 2.15-6.13 1.69-2.54 2.18-2.65 5.69-2.79z" class="cls-1"/><path fill="#8aff64" d="M89.16 104c-9.65 0-9.67 15 0 15s9.67-15 0-15z"/></svg>
